<mxfile host="65bd71144e">
    <diagram id="HIP3nbAZw_EuaXWnEj3U" name="Page-1">
        <mxGraphModel dx="606" dy="563" grid="1" gridSize="10" guides="1" tooltips="1" connect="1" arrows="1" fold="1" page="1" pageScale="1" pageWidth="850" pageHeight="1100" math="0" shadow="0">
            <root>
                <mxCell id="0"/>
                <mxCell id="1" parent="0"/>
                <mxCell id="7" value="http://ics2o.mths.ca" style="swimlane;whiteSpace=wrap;html=1;" parent="1" vertex="1">
                    <mxGeometry x="30" y="30" width="760" height="480" as="geometry"/>
                </mxCell>
                <mxCell id="8" value="" style="shape=image;verticalLabelPosition=bottom;labelBackgroundColor=default;verticalAlign=top;aspect=fixed;imageAspect=0;image=data:image/png,iVBORw0KGgoAAAANSUhEUgAABOMAAAPECAYAAADsFv/dAAAACXBIWXMAABcRAAAXEQHKJvM/AAAgAElEQVR4nOzdD5BdV1oY+KMEsrMJjN0iOwxFwN2ylGW2oMaMXDBVUnAD0i7lgR0zUy3PQJKRq0BGq62xzSZYqRqwZgm71mQTBFUujwUpNJU/jNSbjNkiXmotQjuxayFrgb2hltlYluQkhAmbdNuQzToJRFun57ua21f3vnff6/fu+/f7VfWM1f3eveeed9+75333O+fbc/PmzQQAAAAAjN8f0ccAAAAA0A3BOAAAAADoiGAcAAAAAHREMA4AAAAAOiIYBwAAAAAdEYwDAAAAgI4IxgEAAABAR75MRwMAAADjsLaxuZxSWk0p3RM/ZTdSShfWV/du6HwWyZ6bN296wQEAAICRWNvYzEG34ymlB1JKd7XY5kPrq3sv6H0WhWAcAAAAsCtrG5t3RgDu0ZYBuKrvXV/d+6xXgUVgmioAAAAwlJiGeiay4O7YRS/mzLg7vQosAplxAAAAwEBKQbiPjbDnvnl9de8rXgnmncw4AAAAoJUxBeEKMuNYCIJxAAAAQE+xJty5MQXhYKH8ES83AAAA0GRtYzMXZbghEAejITMOAAAAuE1MSc2FFe7rqHdueBVYBAo4AAAAADusbWw+EIG43VRIHcRb66t7rRnHQjBNFQAAALhlbWMzF2j4XIeBuGzDK8CiME0VAAAA2La2sXlhQmvDCcYxUVsXV/K07Lw+Yv7/Z5cevH5hXO0RjAMAAAAmGYjLnvUKMGHl9RE/uHVxJY0rIGeaKgAAACy4CQfiXl1f3at4AxMTWXHVQiUPjKs9MuMAAABgga1tbJ4bIBD3amSx5WmlueDCagQt7tpFD45tOiCLaeviSj4371l68Hrb6c/LNb8bW0ERwTgAAABYUGsbm8dTSo+0OPq3UkrH11f3VqeT5n8/GkUfnhiyFwXjGJmtiyt53bd8Pt6xdXHljRwwXnrw+lRlXpqmCgAAAAtobWPznpTSuRZHngNxqzWBuFvWV/fm4Mcnh+jFz6yv7n3T+ccIPVqqBHxXBOamimAcAAAALJi1jc07I6vtjhZHfmZ9de8r/R4UAblXB+xJWXGMWnXKdN0U1IkyTRUAAAAWz4WW67y9sb66t032XCEH5D7X8rEvrK/ubbum166tbWzm9e3uTSl9Y2zr7ZTSZ1NKN6atgERkLX4opfT18avnU0ovjaOdWxdXcr+ktuurRbGDIsD1ytKD13eV2dh2e/lx0zDdtNTeoY9dMA4AAAAWyNrGZp7G98GWRzxosGyQx489K25tYzMHTT6dUvozEQP5Y5WHPJyDcmsbm3+QUvrr66t7H63ZxvenlH4ipfRVkfn3l9ZX9/7DPvvN+/uplNJ7Ukq/nVJ6qMVz7oxpwx+Odpbbmgts/H9rG5u/m1L6b9dX9/5iv2OPINvx+OeFcrBt6+LKmSi88d7S71Ic35mlB6/fNiU5nnO8GsSNddnyc1q/nhHQerSu+EdsL2/rXA52bV1cuSf+/d742/Fq4DAe01T9dDnanr0ZfTFQEC368rb3TbWtbbe35+bNm4PsHwAAAJhRkXG10XJ6avbJmH7a2trG5psttp8z7sY6fXBtY/MvpJR+PKX0jgGe9i/WV/d+bWU7/zqltLf0q99cX937TX32faMSZNpcX937VT0enwN+51NKf7xFG3Pg8NdTSv9V03p7UU10q/SrtyKbazmmJ/fLivzk0oPXz5S2lZ9zX5/nfGbpwevH+zxmR4GFPg99KwJgq5Vqvy8sPXh9tbS9cy2LkJR9eyU4mbf3K5XHvBABvjbH/moUimgVkLNmHAAAACyOCwME4rI7h+iZVuvQjbPH1zY2/1ZK6X8cMBCX/ckIjBXbWa0E4rLlyLhr2nf+21dXfv0VEQite/yPpZR+pmUgLkWG37eklP7PyKarUw2K3RF9vtFyevITOUAVgbgbLYJR2ce2Lq70DMZtXVzJ599PtjxH8mN+rhKISzVt6RsArNHmOXdGf7U59vcOck4LxgEAAMACWNvYPFeeltjS6iAPjuBVPzkrbmxTVCMj7tiQS3PlqaGn+zzmD/oUBViuCQL+sbrA5trG5nfH/v7TIdr6dSmlX234W12Q7pEBA7FnBijyUX5OrciIqwbWRmFc1XjfO+D75ZGYftuXYBwAAADMubWNzQeGmMqXvbdlgK1w25prQz5mKJGV9uM9AnF56mNe5+s34v//bcNjxi6y2n6+IRD371NK/zLa+K9SSv+moT3/+drG5qeHaGuegvnJvJZdnl7a8Jj7Kllh5ef8VEM/3RXrt+0QQaqfbNjPG7Hd700pPZZS+oUBj+VMbKOtV4fIzHw1jvmhaGvTOdLqvaKAAwAAAEyxCNrkL/m10xxjGuEr66t7X6n7YwSodpOJdiFPsWxan6y0nwdaFIbIFVRvKw4wQp9umJr6hyml51JKf756HGsbm7lvPhrZa5u5QMMY21eWMxW/oub3r6eUjpQrp8Y58HdTSodTSl9eefzH1jY2T/d7fcJbsbZZ+Vy5sHVx5ZUewbK65+QA20ZD5dx8rlbPxabgV906c+cioPcbLY4nReGIC0VV2Jq1314tBYlvDFGR9aFqcYqtiyvPNrRvtc17TTAOAAAAptTaxuaZCCT0nSq4trH5Vqxx9WxlGuigUw2r8hpjG2sbm8d7BPwebZltNLasuPBnGn7/D9ZX9/7XdX9YX917PPp5eX1176DVY3fje2qe+/vrq3v317QxB9q+Y21j86+klP5C5c85+PjDKaUfa9GW24Jq6YsBrXOx3lvdtMym5zy7dXHlF2oCsDumyMa6c3XTUxsLPuT9bV1ceSjWjGulKMgQVWHL3qxWXx3AY3VVYqN9OUPuicqfWk1TFYwDAACAKRQZW4OssXVHBEY+GOvDnYvgwKDrxNXJ2/iNtY3Nn4qA3yux7Xui4mSbRe5/qimYNwoxnbauCEKufvodvXYRWWiDZkwNLYo5fGXl+f8hpfR9fbb5EymlH6rJqPvzLYJxL9QF1UqerTlX3ujznFdqgnHVqZp1Uzff6BeYzUGwmN5aDXh1qVeW28awbROMAwAAgCkSUxLP7XKx+zvGFMR4ZMi154ZZp2tQH6l5fF577c+Neb/D+FDNdNMco/kbaxub/TZXF3CsVm+tM0wgtN9z2gSk6qZXn1t68HqbabXnJhiMe6NPG+uCt22C0go4AAAAwLSIQNzGmKpOTkqePnu85Zpmu1G3Vty/H2c23i58fc1T98QUz34/dbGct1s0pV//103lHEXf1VV2bbXdCIa9OoI2DKNnpuQQa8/dIhgHAAAAU6AUiBvFtNJp8ugEA2L/73R2ycj9sSlu222ZcQOu4TbuIG7nBOMAAABgwuY4EPfJSjGJrv2JCe67S782S42NteAW1kTXjDt86tJaSulg6Wep9OfLKaVrKaUr+b9ffOrYtQk2FQAAAMZijgNxn1lf3TvudeL6yv3bwRTZUfiPKaV/NuB2/iCl9OmU0s9O5yFt26hZS+2eAQpm1K05N9M6D8YdPnUpB9xOpJQerwTfqo5UnreeUjr/4lPHLrfcx5Oxn/z40y8+dezKqI9lnh0+delg9GF+Hc5HH24NcsiHT13K/V8EXJfitXi4LrA6iv3Ng8OnLhXnbXb2xaeOnR2wz/XjDBrkvTKIyvkwKtfivFofR087hyfHtRMAJurCnAbijne8z9+s+V2uOvoDKaX/aYT7qVsDbVB1bf2DmNL77AjbOg3qAqEPRPXWnrYurqxGMZK50uk01cOnLuUA3Osx2O8ViKuTv6g+f/jUpUuHT13a1+exJ0oBjSOxPwZT/gJfBE/bvs5Lh09dejml9Exso3itj8Tv6gy9v3kR748iSL39pfjwqUuDBlEWvh9nyZDvlUFcGnEgLsufv20+h4flHJ4c104AmIC1jc0ciPvgnPX9JycQiMv+55TSv635/U+sbWyOOrvq3h5/+46a3/2HSlCqrq153be/HpmS86RufbiPRaCt0dbFlaKq8NzpJBgXXzifHzIIV5WDci9H9kST6pfPUX8ZXQTVPuvV31WXejy+6bXYzf7mRV3fDNoP+nG2DPNeGcS4AmZpjNt2Dk+OaycAdGxtY/PMnFVNzR6a1NTU9dW9NxqCcTnI9Wu9AnJrG5vfnwOjaxub1QBRLjzxb2qe8hcatpMDSI/V/OkPy0UserR1b05i6hWQW9vY/O61jc0X1zY2b6xtbNa2Y5osPXg9H/cbNU16duviSq8g6bMjyhiduuDm2KepRtDsmRF/oVqKL7F3j3CbjEBkcvX6Atd3mjEsgo7eK5fHFFDZivU8AQAY0trGZp6m98Qc9d9bKaXVCVZNLeSlfv5Kze9zQO6ltY3Nv5pS+ru5nRF4uzcCa18dj/u+tY3Nv11k9uW15tY2Nn8vpruWffXaxuYXUkr/XUrp70XA51BK6a/WPDa72tDWn6iphJoDcr+9trF5MaX0v0RAMBc8+NqcdRj//4547F9Z29jM7RzlNNxxyAHan6tsN08/3di6uHJ86cHrt6asRnGHczXrzA3rvTkLL1dwjWy8G0sPXm+7Xt1YjDUzLtaf6RWI24o1gY7lwNqLTx3bk3/ixDua16uJ9YnqjDPjgy9+KJS1XR9qrcffrsVrWmfY/bGTfpwdw75XBnEsPmMv9/ipW4+t1+PzOXV0jOu4OYcBgLkXWU+TrDA6ai/kYNEUBOKKoNS/bPjzH08p/WhK6R+tbWzm8eyvRODuq0uP+fKU0vdUnveTKaV/X7O9/Ly/GUUX/nH891fXPC5PUf1LDW1tKtiQ2/pQJCL942jr34ykpHdUHvt9DduYGksPXs/n+6s17ckBuc9tXVy5uXVxJQfLcpDs+himbv9K3kf04/V+U2THbdyZcU1TsLbiC9f5ui908bvii9/ZWNy8OsVVddUxevGpY6cPn7q0FVk16y8+dex8y73Vvd4P93v+LvaHfpxVQ71XBhGfpQ/3ekosIbAje+7Fp44dnVSfOocBgAVxYY4WpX9sfXXvtK3r9V0ppf+9JmhV+PI+Uxf/Y/kfOWi2trH5Qz1m59VlwpX95vrq3l9s+Nu9EZBr2saXx0+THOj7sT77nxbHY/24pnN/VJlwv9AimLfasJZdJ8YWjIvF6OumR12JL5ytpzjlL2NRTfWZyCZZr8meYMSikueg/XxbgKHtl+kh94d+nFVDv1fmnXMYAJhnMTVyHgo25DXAHpiGbLiqmIL6X6aUnmsRKKv6w8hIq7o3ClLuHXB7/6qhoMO2mAb7TSml/yOl9CcH3HZ2rSHQV/e69As+1U3d7Deds/V+8tpxkZGWp6Te1We7hc/EFN1yoK4uw67s0Qi29Qp476jkGlNY36o8p825/UblWH6hxXPGM001quzVVcC7EtObBl5rKGd4vPjUsWMxlfXYMNsAAACACWtbZfStWB/sm9dX9+7JPymllfj9pOUAyT3TGIgrrK/u/Ycppa9LKf3fKaW3Wz4tF2r4H+qCWzloFplxv9Fye2/HlMgD8dxebc0BrwPRr3XFIurk4g/PrK/u/Ya6P8YabC+UfvVCDjj12mCso1YOJr0R00t7PefNOE9vPafXFOwo5nBPHGsv+Tx/aOnB68djvbnivH8r/t3vOFYbgna5fY9FO6rOVB7XJuOz2rZWWaLjyow7UVM1dSsy4sa1zhBjkAtw9At8xtqATzat4xfT4FKbKWdt9kd/+nE6jfK9sgB95RwGAObVcovjyoGKR2uCOMsTnt76VrRrJta7i/77hqii+uMppZyB9p+V1n/LhRP+n1gG66+vr+79Wy22974e2/sTKaV/kVJ6OReFiCDbIG09vraxmbO6fiCq7OaMqxyE/YN42B+NQhB/O6X0s/2CfEsPXl8tqpU2BJ/qnvNAFFC4c4DnnNm6uJLPieV+Ab/0pQDe8a2LKzmQ9UAE5/I+34xstPyzEY9Lsc07I6vuleL3ffaxHfSLYynec2/2OqalB6+fi+O4p81xxHMubF1ceXaQ52R7bt682faxrR0+dWmzJhh3OqYejV3DGkh72uw3svpOxBSyYhvXIqvvcnxJ3orHPROPOZvXORqwj9biuQdL09WuFPt58aljAy9aPsptRhXc5+N1vBYZjbXr9B0+demZ6LM2atfEGmR/fdq8Vjr+pVLVx+K1G3qtwXGcG5XgzMGa9821+LnctMZiTR/sqh/Tl86lfZX3UW7DlRefOjZUlc9o25NFv8TPUps+HWZ/ozLKvhjFe2UMxzf052VpG+XX9nx83m+lL1WNLT6b9hVrhjZdD3Z7Do/zM3yS53B8VpT7sfwZf61ybAcjO32t+nr02ceuz4W0s1JwXZ9cafNZ1mf7I79+AkCX1jY2c+bMIw27fCGCXbUBg7WNzQsRpJmEnGV0fJqz4WBWjDwYF4PkS5Vfb0W11E6+VA/zhaIUFOn3RbkoPnGkso9Wwcb4ktSrwmzhSmyz75f9MW3z9Ur2Tv7yVLsQ/OFTlwY5iS7XLQ4/yP5qnnskvnjWrVF42/6jD1pn3Izz3BgwONO3T3bTj/H8E9GXvaoVX4vgxUCBopr35ZUW52yRUdv5l+tx9MUo3iujNqJg3G3nXfz0+lxqCswPdQ538Rk+qXM41mB9vCZYX7ev3VyfdnUuxGfxky36JBXBzEHGBeO41gHApKxtbOaMoCdKu89TA8+tr+7tmVmztrG5McJF7gfRlKkHDGEca8bVDZJ3dRd83GKA/3rLoMhSKTOirG8gKL6oPN/yi8p2dsjhU5ee7HqboRqA6BWQGOQLT9NjB9nfLfEl9bYvkD3kx70cgZY22x/3udE2ENf2scP241J8EX+mxXO2M4oOn7p0KQIgbVX7oc05m7d/qeU5OxJj7otRvFemUbWfjkRqfq/XuKm/Bj6Hu/oM7/ocLp2L1WrivfY17LHtSumzuE2fpAguPh+vXV9jvNYBwESsr+49E2vAfXusB/dAv0DcBL2xvrr3uEAcjE5XwbipXfenMiVqnPtZiozBQffzeFPgaBzbHNLDLQMHZyNbZiQiq2zYL1vPxDS1Rh2dGxMPzsR5NEhAs7AWX3jH+t4Jj8eX/bHqoC8m8l6ZgH4BtK1RHV9Xn+EjMNA5vItzsXNxXMN8Fh+MQGXP126KrnUAMHJDBOAmsVbbXVEBFhiRcRRwqAvGTWWGR4sBftHufW0zjHpommK0VQpW1q0ZlnrsexzbHFis57Q9nW5Uaw71E1/+en3JKl67pR6ZFPtimuFtOjw3TjdkstTt79gu9tPLpQGyWaqKNbRaT4Xt4Uqcu019+uThU5cuj3lR/7H2xSTeK1Mkv27FVM2RZEt3/BnexijP4V7TPdt8xncilqaoC8Rdi9e7eA3Ka3qW7Yug47092jsV1zoAmAa5cMIT/9v/+qEbX/5ffM+/3fOVXbYoV7Sc1sw9mDnjCMbdNhie4imqTetBna5+Waws9j2Muufdto5P3MWvTklqWrx8HNuceqVF1KuK9ZKqr12xwHr5C91Wn4zNTs6N+FLeGJwZd+GTCGrWtftKZC4VC8IXi8fX9cuJw6cuXdlFsYH1OM5b52RMSaubJvr4uIKSU9IX82grXt9x9EmXn+G9jPQcjufW3WyoXaOwx77GKt4Lz9Tso65oRA7KnW1YV+5gvk71OEcW8loHAFVbF1dy1clzj6Z017/+o1+z+eNf9fN7OwzIPeAFgdEZRzBuJsSXiLopQ7WLihcZLQMuuF9WzQa4XBdkyfs+fOrSerTtYDyu6QvKOLY5C+pet/z6HKvLOIkvhGejD9bi140VDidwbkxEj+O8rbJk9NX2ovwNx/n4kNMO8+twW2AiL7x++NSle2PdsXKAYS23e9QB/inpi3l1bBwL6U/R+3Qc53DdcV2JyrK3Pa+0r0HWbBuFEzU34HpWpo22Hq1pa6/3zaJe6wBg29bFlTtzEK5cRfWr/vB39v7ov/5olwG5O9Y2NvO6ds96VWD3xrFm3G1fFDpaU2pQdV/G1lsM3E8Peae9GiQ6kheXrlu3LH/Zyl9mciXFPllR49jmVItjW6tpY20grtIH1/Kxx0+v17Drc2NS1mq+SK/3+iKdvtiPdeue7RtybaZeUzqLTMeqcWQ2TUNfzKNxVrSclvfpSM/h+Iyr/n0rPuMaA3jxt6N11+Axqr4G1/q9Z3q0dV+PYg4Ld60DgEIE4jbKgbhCEZD74zd/v6v+sm4cjMg4gnF1AZEu79S3Vdemtl8ihrnTXveFNN+9f/3wqUu5umcuKHCiX1GBDrY57eq+xJ4d8TpiXZ8bk1LXl23bX/cld9D3+eUWGW7rNb8bx/k86b6YR9fGHAyZhvfpOM7hupsN5/vcQNjWI/g3cnFdqR5H635taGtTkHIRr3UAUMiZaO9t6o2OA3L3eFVgNMYxTfVKzYD6yBQWcagO2q+1+bIT1oeoHHe2YUpPii+Vt75Y5jWn4stXvy8249jmtKv7slX3ZXc3uj43JqV6nFtts5hiqtlW5dwbeQAq1mgb9WbrTH1fzKBxB4Vm4n06xDm828+4rq61ded4zlbbTb82vW8W8VoHADkrLk9Nva9fT3Q4ZVUwDkakq8y4aZyyVR30t562NMAXvvJzBplClNv2TNzxb/xSP45tzoDb2j6G6pqdnhsTVD3OQfux+vh5Oq8WuS9GYauDYMi8vk/rpl62Ph/HXG24bBxZaLVLWizotQ6ABRfFGh5p2wsdZcjdseAvC4zMyINxLz51bL1mwLwUlQoXWnxJunuAqTz5i8TzfQJyI98mwC51FRBivjRm9bnWAbBIYp24C4Me8gTWkAOGNK5qqut1FQZzlbMpyki4Vrmz3/ou/27WpYk7/A8fPnXpdPTRwZjG21TkIv8+V/+7t8ttTrHbpkHn12PE59VEzo0JqE6tHLTtt00TnKFjr9IXs2de36e3nTuDfMZ1eGx1WWrXdnHu11ZILVuwax0Ai+3csFloE6iyOnX27NnzjpTS+1u068bNmzdvpC8+Jz/+zZs3b36+7oHx97dv3rz5Sul3edrunQ3bzo/91V4737NnTy6I8YWmfaadx/L5mzdvfqFH2+68efPmLzU8t59bbag7zso28zG/o8WxvTul9A09HvLKzZs339yzZ09+TH7sr968efPtmu0s5+0Ux9bjmN6MPnq79Nx+x19+/Yt29HxcqU3LPbZbqD2mwriCcWdrgnF5UHzp8KlLR1sseN2FK9UvcgN84dl1Ncfq4tVx9/5I9Fv1y9TBw6curUXWYafbnEJ1587aiNenmui50aFqYLP1cTYs3j7L2VD6YvbM6/u0rv2DfMbVFYAYh7pzPE9PPjruHS/ItQ6ABbV1ceWeusqpgxCQ2w6UtKn8mgNQNyJw9F3xuzMNjy3+Xg5SPdBr43v27HmlKRgTAZ3V+O9PNwXaYh/fEMd0W7bknj177izatmfPnhuVwN67W/bDjeiL1HCc1fZkPYNxsd9ewbi3Yxvvj2O7M4qV3BLH9pEc/Iu+/EI8vumY3t6zZ8+FUl/2emwqXv/474/0OpjYf9G+e1qun/h2r34aSzAufxmKO9fVhZyLaSMPD7quzeFTl5Zie2sxlWW3FTSv1HxpyVNpH27x3KGm3MaX9q26YGQcS/45G1N6q31Xm+0wjm1OubqF10edddn5uTEhl2uCEm2/9Ncd5ywHoPTF7JnX92lt5dDDpy6d73cjK66TnazRmq8vdYVLcmBsHOvWLeC1DoDFdW4UR54Dco9t/TfXfmLv3yhfB9+IYFP+uWteezgHpHJQpvSrIniSgzTl7LE34//fsctd1k4p7pUVVZEDXJ+u/jKytXoFtFIl8+v9paBa3v+NSj8UQcemfhilok9faQjsFQGzX41g3D0RTCw/9iOxnVdqgpXl7d4Zx/7uhr6sHm+v4/6lUttS6dzJ7ft8BDs3Ksf0XbHv6rE2BVi3jaOAw7aYblI3IC8Cco/HF4e+Dp+6lL9cvF6qppa/gO22xGLdXfITsa9Gh09demaYgf3hU5eej2PYbLF+XqsvMuPY5rSLgFv1y2qRddnzfMp/j/Ou37nX6bkxQXXH+WS/NZaiH+r6YpYzT/TF7JnL92kEluo+457v9bkVf+v62OqC1c+0ubbH5/GRlo9duGsdAItp6+LKapvqqW3d9R/+r78R44hvTyl98/rq3uX11b0XqhlIA3h1Vl6YHIgqfkpBl7fLv8/TJEe9r8p+23p3TFm9JaZY9sy8C+UMreXIJmvqhyI4NJZ+aPBmQ/+8He37fCl77LsiSzEffxHgagyklbb1Sikg+u7ou7Lq8fY67i9UHvNsKXtuOdr8ZqVfi6Br9Vh7BmPHFowLTdXPiiy31w+fupS/8K5VB+QxSM9Bk9fjC0Z1wL6rLxwR1KlbCPqZumBNvit/+NSlS8NkHcSXw3LWTT7m/MXqtulE+bhr7uqnaj+OY5sz5HRNUw/G+XTb6xNf+oqA7pPx83zT4XZ5bkxSj+N8ueE4i0Isz9Q85+yMVZLdQV/Mnjl/n9YFuQ7G+dj0Gf98h1NUC+drriPFZ3FjW+K983q0+fVeQe8Fv9YBsHiapkgOI2fBnVtf3fvm+urejfXVveWMnWGDL01TFxleEbBZLQJR4YF+GXvF+m2VaaZt1oibKrEe3BfiWB6IjMD3R9882ybDMB5TBBub1n4bVhGMa1ofcCjjWjNuW55OkteIiwF33d3vpfJ0ocOnBkp2G8WX3dPx5aXatidjwF9kJyzFF4xh1R17/tJwJKb5FHfy69aeSvFFopoFMo5tzoSYHlU3DXopvog/WcmOqFsfKk+nOvLiU8eaqvd1dW70cyLeF32nqA2p33FeKRU3aDrOayNes29S9MXsmZb36Ujlz6U8LbUmcLgvsoDLn/EHexQwGHc78zX+bMNncW7ntbjOFJ9d++LzeF/lsSd6TC9e2GsdAItl1FlxKaXjSw9ebwq6tVl8vs7AFV5nTazlNpBqVltkSLUNXH4hft5fTLEsTU99OwKgTQG2IivulVIfJikAACAASURBVAiwfkNMp9wYYIpsrWH6ocFyTf9sF2+o/O6zKaUfikBasX7bRo+19HaIQOZ2EK4mK/HOmjY0FsSoUfTzINmOfY01GJe+FDi5OwJyo/oytNVyXaCe4ovEsR5ZUqNa5Hs9go5NAcl++zlbE4gZxzZnRp4GHWsI1WW5tDn+1Cug2+G5UXZbpdj4cvlkHFNdRuCutAiY93vP5nPo2CyfSwV9MXsm9D7txItPHXs4Msbqzru2n3Fj1+ezeF/L9fl63Vxb6GsdAAvl0REe7ENLD17f6PH3Nov6Vz2WM+xG07ypdnyIxt3Wn3v27HlzgKmqGxFIe3dMzyyCP882ZXlF8Gm5HPjL+4zsrW8YQRbjMP1Qp67yaG77Z8u/iMqqv1Samvv5PhVby0G+d5T6rK4y7Z01r9E31K3TF8HMcnuL4hJfGHVm6LinqW7LA+EXnzp274iCCTnT4d4eGU0Die0cG+c0lphOdXTItWzOx/p7Y9/mrMlfVneRhXS631TCLs6Niropd4WxLTgfa1Q1TSnvZfscHMdi7ZOiL2bPBN6nXTraUNBhquzys7jn9ci1DoBFsHVxJX/h/+CIDjUH4hoz2NY2NleHKN7wmfXVvSMpLDEDbjT89LJR89M266qYYlmsi/b+CC59vlIZtarIlisHiDZK29itYfqhzo2G/qlTLlZx2/p3FUU12tVSn32hYT3ENwdowz2l7a6WAom7zjas6iQYV4hB8d0N68z0sx5fdo+2WI+p+uWl55eZF586lrd9b8svPVsRVBx0H1dKAck2x74VAaPGDMBxbLNkoOOb1PNefOrY6fii1nba8pU4j1p9Qevi3Cjt61qPjM+x9n8Eke7uExAsOx9B8UG+II/qnBprwKujvki76I9RG0U7RnksA2+rw/dpp+dw3Mg6OuBnfN152/bzcejXcYjP4muRSdr3ejTmax0ATINRZMW9lVL63l6BuDDoVNMciBtVltTUu3nz5oW6n17tvnnz5kbNz0CBmwi8FcG3t3sV2YgCBUXgKq81dyb/lLLK3r3baabD9EODGzV9c1ugcs+ePe8vTc0t1o/7SI/tFkUbip9zN2/e/HRDv79Z04amQOcvVbZbBDvbFNMYSKfBuBQBhzxAfvGpY3sjm+FsDPirA+zL8aUiD6bvfvGpY8cGyIY7X/pCcrlNRl6062h8oaurBFts5+4I5JS/zJ1v+8U9PzeO/eF4Tnk/xdo2D5f2M5FtVo5vfcDAxEB9v8v9bWfGvPjUsbvjfKoef4p/n40g3MBZlV2dG7Gv8/GFdj2+rBZfro+13MRu+nErvrzeXXpfll2O398d7+FBA+qnS303SMZK+XlnR5UV20sHfZF28V4ZtVG0Y+hzvs+2Wp/DHb1PJ3IOl25kPVz6bChcK3/GNwTD2gbIdnUutPgsLt43+Xp+dwRRB9n+OK51ADBRWxdX7hzBlMBc5fSepQev96ySuraxeWbArLiFCsRNgWcjY+tCn2DePf2KO1SqrE61mHL7XdHGZ2MK69ulabt1qpVLR1URtq6a6nZwcITr6G3bc/PmzVFuDwCYgFhjrm7Nw7tV+AWA6bR1cSUHu35uF4375NKD1/tWYV3b2Lwzpgze0XK7cxOIi7XFViNL67bsrgiybB/rzZs3a/syMs92/L3udwO0qdhnbZt6tX3Pnj2PxjpmF6rr0sXUziLT8slyUK/NPvsdU9tj3rNnz/GY4rmdidbjce+Iwg253b8alVVTFLEoMuM+W2Sylfqj53ZTi9e97rga+rQ4lmfrCnO0PdaqsRdwAADGKwJxl2oCcZcF4gBgqg0cyAm/kIMuSw9eb7uO15lFDMR1oRTIKesbABpGBNTuLDLDqpuIQgg3IjiUs+N6FUHowmpNJdMcIPxstH+1KJBQBOLiOD6/Z8+eXy2qzO7Zs+fcLtZsW655jd6O4Fmb/vl89Of79+zZ8/lRrR0nGAcAUywCbUVF0Tw1c71YozD+dqRHxVHTNQFgSm1dXBmmmMILObDWp1rqDpEV90jLh89jIK4IWjUVVfhCaa2yJm9HIYCyonppnTzF8h09AjfFtvoVeqi2vdhfr9d/o2Hq89uV/69Td5x17e7nRk0V1ULOhiuO491FcK76oByci+Dju+M5bw/Qb/0e847Ka3cj9lP3nFcisFluR6o8d3nQAhemqQLAFDt86tLrKaV9Q7TwbBRWAACm0NbFlZw59bGWLcuZcOcGCcIV1jY287TFn2zxUBlxMyBPRe23RlqfQODUiGmqqVdb2xzvLJIZBwBT6vCpS/uGDMSdF4gDgOkVhRv6BeJyhdRzeR2rAaaj1qlOE6zzyfXVvcNOmaVDbQJTsxCISy3bOY+BuCQYBwDTK6/3dvjUpWsDBuRkxAHA9OuVgfZGTEUd+ZpjNXLA7/j66t6elViB0foj+hMAptqxXIihRQPzY44KxAHATHigppF5PbhvX3rw+vKIA3FN23o1r4UlEAfds2YcAMyAUrGG8tTVa/GzrmoqAMyOrYsrN0rFGz4T68G9Mq4DWNvYLK9Pt515t766t4vMO6CGYBwAAAB0aOviSpEZt7H04PVO1sRa29jcXjtufXXvwEUggNESjAMAAACAjlgzDgAAAAA6IhgHAAAAAB0RjAMAAACAjgjGAQAAAEBHBOMAAAAAoCOCcQAAAADQEcE4AAAAAOiIYBwAAAAAdEQwDgAAAAA6IhgHAAAAAB0RjAMAAACAjgjGAQAAAEBHBOMAAAAAoCOCcQAAAADQEcE4AAAAAOiIYBwAAAAAdEQwDgAAAAA6IhgHAAAAAB0RjAMAAACAjgjGAQAAAEBHBOMAAAAAoCOCcQAAAADQEcE4AAAAAOiIYBwAAAAAdEQwDgAAAAA6IhgHAAAAAB0RjAMAAACAjgjGAQAAAEBHBOMAAAAAoCOCcQAAAADQEcE4AAAAAOiIYBwAAAAAdEQwDgAAAAA6IhgHAAAAAB0RjAMAAACAjgjGAQAAAEBHBOMAAAAAoCOCcQAAAADQEcE4AAAAAOiIYBwAAAAAdEQwDgAAAAA6IhgHAAAAAB0RjAMAAACAjgjGAQAAAEBHBOMAAAAAoCOCcQAAAADQEcE4AAAAAOiIYBwAAAAAdEQwDgAAAAA6IhgHAAAAAB0RjAMAAACAjgjGAQAAAEBHBOMAAAAAoCOCcQAAAADQEcE4AAAAAOiIYBwAAAAAdEQwDgAAAAA6IhgHAAAAAB0RjAMAAACAjgjGAQAAAEBHBOMAAAAAoCOCcQAAAADQEcE4AAAAAOiIYBwAAAAAdEQwDgAAAAA6IhgHAAAAAB0RjAMAAACAjgjGAQAAAEBHBOMAAAAAoCOCcQAAAADQEcE4AAAAAOiIYBwAAAAAdEQwDgAAAAA6IhgHAAAAAB0RjAMAAACAjgjGAQAAAEBHBOMAAAAAoCOCcQAAAADQEcE4AAAAAOiIYBwAAAAAdEQwDgAAAAA6IhgHAAAAAB0RjAMAAACAjgjGAQAAAEBHBOMAAAAAoCOCcQAAAADQEcE4AAAAAOiIYBwAAAAAdOTLdPQX7V9eWU0p/co0tAUAWFjffvXG9Y1xHPz+5ZUzKaUnnFoAwKRcvXF9j86XGQcAAAAAnRGMAwAAAICOCMYBAAAAQEesGdfshas3rq9Oa+MAgNm3f3klrw9334QO5JNXb1w/4zQCAMZl//LKTZ17O5lxAAAAANARwTgAAAAA6IhgHAAAAAB0RDAOAAAAADoiGAcAAAAAHRGMAwAAAICOCMYBAAAAQEcE4wAAAACgI4JxAAAAANARwTgAAAAA6IhgHAAAAAB0RDAOAAAAADoiGAcAAAAAHRGMAwAAAICOCMYBAAAAQEcE4wAAAACgI4JxAAAAANARwTgAAAAA6IhgHAAAAAB0RDAOAAAAADoiGAcAAAAAHRGMAwAAAICOCMYBAAAAQEcE4wAAAACgI4JxAAAAANARwTgAAAAA6IhgHAAAAAB0RDAOAAAAADoiGAcAAAAAHRGMAwAAAICOCMYBAAAAQEcE4wAAAACgI4JxAAAAANARwTgAAAAA6IhgHAAAAAB0RDAOAAAAADryZToaAAAYlUMn15dSSo/HTy9X4ufyS0+vrS/SC3Do5Pq+lNJa/PP8S0+vbU24SVMrzqcnU0on8rmSUjr90tNrVxa9X4DZJhgHAACM0okWgbjsYPycOHRy/VpK6dgiBFkOnVzPx/x8SmkpfpWDcvdOuFnT7ET8ZEciMHd00TsFmG2mqQIAAKN0ZIht5Uyx5w+dXD/R4rGz7vFSIC47uCDHPazq+TTM+QUwVQTjAACAabA9HTEyx+ZSTLlcqzk2ASaABSIYBwAAjNvlmp86xfpg86opA24t1pEDYAFYMw4AABirl55eu22Nrx6FHo7k7Lg5XT+uLiuu/LezHbYFgAkRjAPm0qGT60di/ZnymixXXnp6relOPADQoaggerpSWbRwJCqtzo2YfttrCu4JwTiAxSAYBzOqx93kqivxc/mlp9fW5/n1PnRyfS0G8413nQ+d3O6C/D/nBw3MxSD6yfiCcD5K62+Nou0N+1PKH4BFcLrm2j2P68b1yorL9s1xRiAAJdaMg9l1okUgLsVgNj/20qGT66/P46LI+ZgOnVx/Ph9ji4Fuisfkim0vRwZdW0+WFlhu2/+7UVfKHwDmyktPr12rOZ6lOXyV21RMVVUVYAHIjIPZNUzVrX0RhMoZVufn4bWPbLhnhhy0H4z+yJlyD7fIcqv2+bgDm0r5AzD3GgoX9LwmHzq5/njcpMqBvGNtssm6znCv7HutZqyyVfO7/LiHh9h++djOxs9SBPcOlsYQ14oZE3mmwCiOv1QhtlgipBgfXYn93dpXtPPxeHzXr8GRaGNdf1yJWROdtAVAZhwsnu2pj/OQIReDqksjuHueB4Svq2IGABNRl/ndGFyL63/xnH0DZI5XM9y7zEKry9w/G8GgsqVDJ9eHaVf52HKwK88YeD3+u3wzr1if75kY+7SZUdAogqKvx/bWKjcqD1b2VQRQi3128hrk8yXPhog+aeqP3K7NQyfXn4zgIsBYCcbBfLlc81NnadanPMZA6ZmGP1+Ou8p3v/T02p78k/87fterT/oNSKuLKs/1GnwAME75Wp6DHw3X317X2OoNxbaZ4xPJOC9ljlWtR3ZY1TDtGiZ7fymWMRl4TBiv3fMxnmwTvFqqBAwLY30NIgD4/ACzGR6PWRPzuGYhMEVMU4U58tLTa0erR9Oj0MORGV8k+ETczSzbiqkqtwXcYj2aPOA9H3fUq3dG+3rp6bVc8W0rnrc+L1N9AWDcInBTdbAhkHO+YR25WVWX/ZULa12LpTKqwbC1nK3fYR88nsc3Lz291qqSa4wtBwlwTUQpE29QByNIea9pq8C4yIyDOZcHETmI1HCHeZbXIKu2PQ+WjrapkJofE4HL06U1aa403J2uPvdsfq5AHAAM5EjNT10gbiuuz/OkMfMvAm51Y7RdTR+tUawT1xTgG2QJkyd7BOK2SrM0JhbIium3dYG4azHT4Wj8nG6YEr0vAo4AYyEzDhbH6ZqB3Syn4FeDceuDZvnFHeCzM54hCADzpJg6eWwespIiwFUdb21VAnDrNWO0EzXLYwxjPYok3ArCxQyBZ2pmGORMsmN9judIQ6bfdpCrerOyx77GpsdSJnUFIy7HWPBITZAxV+s/4QYsMA4y42BBNEx1mKcFaoeeyjFoIM46IgAwVkWBpnlQmxVXDgi99PTaek0W2b4RjDfyfo5Vx4Axi+DemrHTWoviBdVlT1Jklt1bF7Qq7avLm54nasa4OVDYWDk/2nm0pp11xwuwazLjYEE0VAptvONcWmfjWqzD1ncQVSmrP+5y9dcqd1lPHDq5PtaS9HF8z0els2sxLXaoIGDcgS2X1t8qppCMOktPKX8AZlBe2/bxtuuYTbG6LLK6aannawI/J6L41LAan5uv+4dOrp+tySA70lQ8I8aSdcuE9MxijH0djaqrXdwIrvb5tViypaeGdu4zgwIYB5lxsDjq1s2oHViUUvVTBLzaLn5brpI17nL11bXh9kX1q3FOg7hUHpwNc7c0T3c4dHL99QjqPVlaP6dY2+Tl/Pf8uN02Vil/AKZFUd287iemRtbd3Hp8lq9NsW5Ztf3XGta3rV03bhfHf7nFjba6ffYaR9Vl+bUqthFtGXtgNcaB1WNoPc20oZ2zvMYyMKVkxsGcK1VTbVw8uEZ1WkTbQUhdufpxDbzO1wT7crtzIOt8DA5HfRezOrhrHfiL1+FSy77c17DWSWtDVBB7PLIQHnb3F4Au5Wmah06uX66p0Lk0wrXTJqE2eFXXjnztPXRy/UrN8a8NEkwaRGSCDfKUunHPIBvoW2RrBOqm9uYbjsNUVS1YngQYOcE4mCOHTq7XVX062DAloNWdzGkVg9bTDQGnEzFttajotT0ds02l1XGIQFz1C8Y496eUPwAzJQJDp2sqWI7zxt7YxLW/Lhg3aGBobMG4IdwWjBvkBl6M3Tpv4wiYOQCMnGAczJe2GWxbUV11puV1ZGI6QtOUzmIgvD0YjgFgUW5/vcNg5KUOA3G9Svmvl+5KH4x+qbarKOV/bwfNBYBb8k2zWJO1HFCZ1aykUS3VkbPW983yDdQ5MJGbucB8s2YcLKalyICa+Tt9uTJWrDXTNpOrWA8vT2d9ZsxrzBVZanVB0muxsPLeWC9nb/x76MF2n1L+OdstF9S4HD+5qti9DZXDDo5izToAGEL1OjirY5W6rLhp2NZu3DZGGWQcNe4xV6gbD14r3Ywd9Of0HBQRAaaQzDhYXEciY+vorPdAaa2ZomhE28FeMZ11LAOt0np9VTlDbUd5/fjv84dOrq9HQG2YgXdTKf/GLMjIQjhaM4328SmaFgPA4hgq+JavudOyxEJUXx9lRt+0rJtXd8NwbYC2dRFUrJs2u/XS02szP94F5ovMOFhsRyJza+blAXhke90dUyxPR9CrzcA8r9+yq4IJDWqrqFUDcWXx+2Ez5IYu5R9B2XKb9sWXCQDoRGROVa89dVMEm4JCjWIZh67UZZcPkp1VHSPsi0r3k1b3WrSqeBuPGXvWfaxhV+2/g8Y0wLSRGQdzJKY71iqtJVbNGsuDqPPztGB/DMRu3RktDe6PNATIUlHwoU3wagB1A7/T/fq6tIj1pba7GkUp/0Mn189W1ps70nCHGQBGqlR1vKruOtQUFFqvu8b2yFQfl7rA38NtC0lFgYdqe9cmvXZZFGC4XFl+Y7tIVc6ybxrflJbR6GKaaopMver6uc/0amMh2nowCn8pZgWMjcw4WBB5KmdkjFUHtZ3cqZykvOhxPv68vtxLT6/1Wpvt8RHfea4G47bidegrHjfIILCplP/Ntj81A1d3kQEYu7j2NlUdv+3GUgRJqtfTfREU2nEdj4yoLiua1y0ZcW3Aiu51N9PWpmSt37opqblvX67LPiy9tl1mJp6vy46L9YIb2xGzRV6P9r4umw4YJ5lxsEBKGVfPV476yJSsRdKJl55eOx/rsz1TE4gc5Z3n6iBu0CyzKwNUyFXKH4CpdejkenXsUajL7C6c71FF9GxNgOdgBOSuxU23pQncWKq7bg+0Bms+5kMn169U2l5UiJ/oeq6x1uz5mvHTvigOtlUa7xycxFiiIds/lQqYXassZbIvXrd9lceeiBu4ACMnMw4WTNyZrQ5sF/LOX1RirfbFNKzJMi2U8gdgVI40/DQF4q7E+q+1YkmKpr8XwZVOxzexZERd5lWrrPiKuqDbVIxRYvzUdINxqfQ6T+ymXhTmagpc7otpwE/GT1Pxr6Er3AP0IzMOFtO1mrt/i+p85c7pKDPMtip9O+i2B3l8Uyn/YQeSl5XyB2BCcqCn7/pe+ToVAbBpWW6j7rp9uUd2Xy9FdfWyLqd69nM01vib2puYOWgYmXrDrBd43jgIGCfBOFhMAwff8jol07SQbazjsS8Gubtp1zgXE65OM92uUBp383sqHd8g+6pSyh+ASagu8j+I822KHRUi4HIlbqwNOr4ZdZGiuqDbMFlxxVTL6nTQXhnr1T5vm91efV6rPikqscc6a4+36Ptinb/bKr8P0cbWmfu5MFcUnWhbQOJanH9DvW4AbZmmCgumVFm0rDqoqRsY9bwb22tB3FGLxZFfjjuyPRfj7dPmuukko5yaWbet6volTdo+bptS/gBMkfMDrG22FdfLPOX07ii2NNBNtlgL9u7YRvXaW2y7rj0jvckYGXDFEhhbEdTZzRpv5eO53GvabvytCKQNktVVft7ZAQtNFNNB747jXq+MIYu12R6Ox9SNL9sE48rnU79+qGtjvnGb938stlMNOF6ONQiP5ccJxAFdkBkHCySqcF2qOeK6QUlVrjS6XjdAju0OMwVgWOV9FYvxrsegt9VUkAjEXaq5kzvKYNx6TVDtSC4cEeutNLXtmSEzCpTyB2Di4jrycJeL38c+z9YVpIpr/ss1Txt50KUoEjWibW3FdNA2j70SVfMH3cdQz6tsY6tfADZuDtaNFfu+BqM6nyLIJtAGTAWZcbAgSqXl6zKldgyeYtBTHazsiwplO4JEMbhq2u641AWL1iJL7pkYdNfKQaeYUvFyTZu3RlmlLAKDdXemTxw6uX6p2s787/z7Xax9o5Q/AJT0uvk25FpuDCjGFV4DgBKZcTBHDp1cf77haPb1WCfjfMNA6GzNFM6DEZArCgMsTagS68MROKpbn+REBLuuRZZbcWxFW3tlnA08NaaFoh+r/Z9/txbr3GyNoi+V8gdg0cQNpSPFmmTFFMMIAB3psZ7ZQFMdqVfKeFuKmRbrxdq4LV4DBRKAhSUYB/Nl0KmNV5oGo3kgdejk+umGtct6BffGLtp2byzG23TMg1ZXe3gca4REgOxYj+DhSIOZfSrL7Ws5ndhdagCmXqwhWx6n5JtcbZp9uk0xJVq5VBoTHollTdo8b+D16QDmiWmqsLjyILTnWmKxKO/Ipm2OUs7mi0qhD+9yAeZrsWDv2I4zBvxHR71QdI/9PbyLu81K+QMwKwauDu86Nzpx82+Ym7P5NZCZCCw0wTiYXbu5m3i+XyCuEIGdYQNeY7/rXKqg9vCAGV1bkRV47wAZcXUV2tq280q0s23Q73xNQG2gUv4RAGzbJ0VQ0vRUAGbFIOOMorqp69yIxDIng2bTn/UaAJimCrPs/ABTMbdiwHo51vIYaOCUA15RrfRETEEoTw29HD91bekqE+xWFa/S+iRHKtNpiz64FhVDh8mEK6btHom11wbaRlENLNZ1W4vtHIw7+7WvUVQ5PTFsKf8cAIziDcW+ytNiL8c+ryjjD8Csyde5XDE8lmBoWraiKEp1VrGAsThWGhv1ctnUVIAv2XPz5k3dkVLav7yymlL6ldKvXrh64/rqBJsEMyOmKbxcM13kbgNfgGb7l1c2Ukr3lR7w7VdvXN8YR5ftX145k1J6ovSrT169cf2Ml4d5EDevqkWJrgj+dKN0M7R8I7TInBv4RjAwP/Yvr+wIOl29cX2Pl1dmHLBLEYhTrh4AmJjIPpflPSGxHIeiGAAtCcYBPR06uV5M/diKO5vbA90W5eotzAsAAAAVgnFAo0Mn10/EOiCFtZbl6k/HHVIAAACgRDVVoJe6jLd+crn6ahVQAAAAWHhJMA7oY5Dstq3IiFOuHgAAABoIxgGNogLZ0ShH3yQH4c6nlO6VEQcAAAC9WTMO6CkCcpcPnVxfKpWsL1yJvwMAAAAtCMYBrbz09Np2NVW9BQAAAMMzTRUAAAAAOiIYBwAAAAAdEYwDAAAAgI4IxgEAAABARwTjAAAAAKAjgnEAAAAA0BHBOAAAAADoiGAcAAAAAHREMA4AAAAAOiIYBwAAAAAdEYwDAAAAgI4IxgEAAABARwTjAAAAAKAjgnEAAAAA0BHBOAAAAADoiGAcAAAAAHREMA4AAAAAOiIYBwAAAAAdEYwDAAAAgI4IxgEAAABARwTjAAAAAKAjgnEAAAAA0BHBOAAAAADoiGAcAAAAAHREMA4AAAAAOiIYBwAAAAAdEYwDAAAAgI4IxgEAAABARwTjAAAAAKAjgnEAAAAA0BHBOAAAAADoiGAcAAAAAHTky3R0o/fuX17ZmNK2AQDz4b0TPIrj+5dXVp1HAADdEoxrdmdK6b5pbRwAwC7dFT8AAHTINFUAAAAA6IhgHAAAAAB0xDTVZq+mlB6d1sYBAHPh3ATXjftMSumC0wgAGKNf0bm3E4xr9ubVG9cVcAAAxmb/8sqbE+zdG8Y6AMA47V9e0b81TFMFAAAAgI4IxgEAAABARwTjAAAAAKAjgnEAAAAA0BHBOAAAAADoiGAcAAAAAHREMA4AAAAAOiIYBwAAAAAdEYwDAAAAgI4IxgEAAABARwTjAAAAAKAjgnEAAAAA0BHBOAAAAADoiGAcAAAAAHREMA4AAAAAOiIYBwAAAAAdEYwDAAAAgI4IxgEAAABARwTjAAAAAKAjgnEAAAAA0BHBOAAAAADoiGAcAAAAAHREMA4AAAAAOiIYBwAAAAAdEYwDAAAAgI4IxgEAAABARwTjAAAAAKAjX6ajAQBguuxfXrkzpfRASunZqzeuv+nlAYD5ITMOAACmz/GU0s+llG7sX165sH955R6vEQDMB8E4AACYPo9Gi+5IKX0spfQb+5dXXtm/vHI8suYAgBklGAcD2r+8sqzPAIBx2b+8sppSuqtm8++VLQcAs08wDgYQgbgNATkAYIwe7bNp2XIAMMME42AwZ+JO9Tn9BgCMWtzw+2Cx2a/8iv8kHX/w4Pb/N5AtBwAzRjAOWoopIx+LR38w/g0AMEo7suKO3ncgfeKHvzP9xi8/ks7+6P3pW973dU27ki0HADNCMA7aq2bDyY4DAEYmgmfHy9t76CP33vrvD3/3N6a//fRH08azD8uWA4AZJhgHLeS7yzGwLXtv/B4AYBQeiAy3bTkL7j1/+l23bfZPfc0d3CURDwAAIABJREFUsuUAYIYJxkEfMWhtyoI7Z1ALAIzIjimqH/7AN/Xdqmw5AJg9gnHQ36Plu9QVd7SoeAYA0FOsRXsrC/9r3/3O7UBbW7LlAGB2CMZBD1HR7InyIz70gdsGxk/E4wAAhrVj6YsPf3f/rLgmsuUAYLoJxkFvO6an5rvMn/qx2rvNF/QjADCMuKn3sfJTPzRAVlwT2XIAMJ0E46BBTBf5YPmvP/rYd27/fw7IVdwXjwcAGNSOrLichZ8DaaMkWw4ApodgHDTbke2WB65FRbM8QM7/rpAdBwAMozJFdfdZcU1kywHA5AnGQY39yyu5KMNdxV/y3eOP/+DhHQ/M/67cVb4rngcA0EoOcpXHHO858K70re/7+k46T7YcAEyGYBxUxF3fM+XffvwHD6V3fuXOAWr+d/59xRl3jQGAAezIijv+kXs77zvZcgDQLcE4uN2ZGGxu+9p3vzM91DAwzr/Pfy+5oxrIAwCoExlm9xV/yplpR+87MNG+ki0HAOMnGAclUc3skfLvPvXEbcUaUp+/P2JACgC0sGN5iw9/4Btvy8SfFNlyADA+gnGw044iDHng2W/dlvz3I992213sc/oVAGgSAasHyn8+/tHup6i2IVsOAEZLMA7C/uWVB8pTRbJP/VjvrLjCJ374O6q/ui+2BwBQ53h5WYx8Yy9no00z2XIAMBqCcfAlO7LZPv4Dh1oPivPj8uMrZMcBAE12TFF96KMHZ6qjZMsBwPAE4+CLWXG56MJdRV/kAeWg1czy4ysD0btiuwAAt0T2/K1xRy4G1W9ZjGklWw4ABicYx8KLgeCOu9OfeOw7B15AOT8+P6/i0SgKAQBQOF7uiWldK25QsuUAoB3BOPjidNJb81Hfc+Bd24PJYeTn5eeX5O3KjgMAtsVNug8W/84Bqw9/4JvmqnNkywFAb4JxLLT9yyurMQi8paYYw0Bqnv+x2A8AwI5s/KP3HRg4G3+WyJYDgNsJxrHodmSt5Upmu12zJT//Qx+4LbNOdhwALLjI+toxRfXjP3hbAai5JFsOAL5EMI6FlQd3KaX7iuPPd2p3mxVXyAPryp3f+2J/AMDieqC8NEYOSLWt3D5PZMsBsOgE41hIcYd1R7baQx+5d2QD4rydh26vxnrGnV0AWGg7xh7ztlbcoGTLAbCoBONYVHm9lruKY//ad78zHb89eLYreXt5uyV3VdeJAQAWQ6wfu2PsMWzBqHkkWw6ARSIYx8KJKmY7gmIf/8HDI188OW8v3+2teCL2DwAslh3LVXz4uxc7K66JbDkAFoFgHIvoXHW9lnHdmc4V0moGkeecdQCwOOJG3I7q7aPOyJ9HsuUAmFeCcSyUmCLywfIx/+hjt2WvjVTN9j8Y7QAAFsOOrLhcdX3UGfnzTLYcAPNGMI5FsyMrLQ+G3/On3zXWLsjbz/upkB0HAItjx/IY1oobnmw5AOaBYBwLI98djYHZtjx4+8SYs+IKeT+VweJ7oz0AwByL6/2t5THec+Bd6Vvf9/Ve8l2SLQfALBOMYyHEoGtHNtpDH7m3sykieT8P3b42zDmDQQCYeztuvlkrbvRkywEwawTjWBSPlu9Kf+2735k+/oOHOj30vL+835LcnjPOQACYTxHsua84uBwkMkV1fGTLATArBOOYe1HB7InyceaB2iR86on7q3t9JNoHAMyfnWvF3b6GLGMiWw6AaSYYxyK4UD7GfJf06H0HJnLYeY2Ymru0F+ofDQDMqsi0+li5+cc/aopq12TLATCNBOOYa/uXV1bL00OyT/3YbdlpnarZ/33RTgBgfuxYK+7Itx3YDgwxObLlAJgWgnHMux1ZZ3ngNemBcN5/bkeF7DgAmC87pqg+9NHbrv1MiGw5ACZNMI65tX95JQ+C7yqOL9/9/PgPHp6Kw83tqNyNvSvaCwDMuP3LKw+UxyC5gFNeqoLpI1sOgEkQjGMuxV3LHZVKczXTd35l4wCrU7kdNdVcz7jbCgBzYccNNmvFTT/ZcgB0STCOeXUuBkvb8h3phz4yXQPh3J73HHhX+Vd3RLsBgBkVVdJvrVebM60+/IFv8nLOENlyAIybYBxzJwZCO6qXfeqJyRZtaPKJH/6O6l8+ZiAHADNtR1ZcruA+LZn5DEa2HADjIhjHPNqRXZarl03rOi25Xbl9FbLjAGAGRQBmRxXVmmUpmEGy5QAYJcE45kosmHxf+Zhqss+mSk377ovjAABmywPlZTJyJtWkq7gzWkNky52TJQdAlWAc82ZHVtnHf+DQ1A+Cc/tyOysM3ABg9uwoHjVt69UyWt968OvSO7/iHU3bfCul9NjVG9dXr964/qauB6BMMI65sX95JQ+A7yqOJ08fOD4jg+Dczsp0h7uqa84AANNr//LKankckotH5fXimE8/99mX0/f82Qvp8j94re74fiGltHz1xnVLjwBQSzCOuRCVy3YErz7x2HfOzILJuZ25vRWPxnEBANNvx1pxH/5uFVTn0T//nbfS9538+fQTP/n30+//m39XPcKcDfe9V29cf0A2HAC9CMYxL86U12h5z4F3bS+0O0tyeyvrjtxRne4CAEyfuHm2o5L7rGTn095P/8xLafWBZ9I/+vV/Vvecn4psuGd1KQD9CMYx82JayI4B8LQXbWjyyO0V1z4WxwcATK8dWXEf+sA3zkx2Pv392q//0+0pqT/9sy/VPfaNlNK3X71x/VHZcAC0JRjHPNiRPZYHwN/6vq+fycPK7c7tr5AdBwDTbcdSGQo3zIff+/1/l/7yX/vl9P0nP5t+67XfrTumT169cT1nw20sel8BMBjBOGba/uWVfCf6vuIYchGEj9+eXTZTcvsrxRzui+MEAKZMXKN3LJXxnj/9Li/TjPtiNtzPpQsXr9QdyKsppW++euO6G6YADEUwjpm1f3nlzmrWWL4T/ae+5o6ZflFz+2vuqJ+L4wUApsuOrDhrxc22nA33Q3/xc9vZcL/9hd+rHksu0PDY1RvX77l64/or03ygGwfu3zcFzQCgwZfpGGZYHvzeVTT/a9/9zrkZAOfsuL/zi/+4PAi8I47XHdgObRy4//mU0pGWe7ycUjq2+tpzW1N+TI+nlJ5MKZ1efe25s5W/nUgpPZNSOr/62nMPj7ENJ6INua+Orr723LVx7WtSNg7cn/sxH+fDq689d36AvimeN6gr0ZdDnX+9zot51tU5z/zav7xyT0rpvcUB5sz2WSsgxZf8nV/8zfSXf/KX66qkZi/kWOvVG9dvTHuXbRy4P3+eP75x4P58Tbh31q6z0zJO2Dhw/1JKKY8FDw7x9KGvK67JrsksBplxzKSoWvZEue2f+OHvnKvFkvPxVDwRx00HNg7cf2SAQFyKxw4zWOvak7G/J2v2+0z8/4mNA/eP81jyvvMAN9+1X5tsd4xenDtFQK2un3sZJhCX4tzbzWvW67yYZ12d88wva8XNgX/+O2+l7zv58+nxH3+uLhCXs+G+9+qN66szEojL19fH459Lu7iuTNK0jBN2c23dTb+7JrsmswAE45hV58rt/pb3fV06et+BuXox8/Hk46o41+95TMxWZCdNuyJzql8G1dIYj2Oc2542gx7r5SHbv9vzr+15Mc8W6bxkBGL5iB3V3D8kK27m/PTPvLRdKfUf/fo/q2v6Z1JKuUDDszN0XNXg1Sze9JqWz+Mru7guDns9T67J21yTmXumqTJz9i+vrKaUPlhu948+dlsW2VzIx/U9f+5C+VA+mI9f1a6JONprp6uvPbebQVeXHo67ta2nTtKd1deeOxp3g6uD0OdL/326GngbwfnnvIDB7ciKO/JtB2Z+3dpF8lv/5HfTj/z3zzVVSX0jpqTO4nirmpG1b+PA/Wurrz23PqH2zKxY+mFvZLyXHaxkrVXHiFurrz23mxtkrsmwAATjmEU7ssM+9IFvnNuqZfm48vH93b/3m+Vf5+O/Z3KtWkwzFGzrKQbjBuRTrG4Av3Hg/vI/r4z6fHRewFB2VDp/6KNmVc2CXKDhwmdfTj/9sy81tfan8hq9V29cf3PWji2KNtSdiEd8xg+ves2tXJNHPkZ0TYbFIBjHTNm/vHK8ulDyJ+Y0K66Qj+/5F14rr2Hy3v3LK49evXHdlFWGku/wTiq4WHN3Od+xX+pXeCDf1Y8vE/tKUzLX57H4w6RM8ryYBc5ByvYvrzxQLSL1re/7en005X7t1/9p+pFPPldXJTV7NbLhprpKah9N65TlNbhOT3uRqWSccItrcn+uy8w6wThmRqzNsiMAlRdKnqeiDXXy8eXqqj/xk3+//Ncz+5dXLsziXdtFVFpM+WCpKMSVWE/kfKznkqc7XM7TFOu6qE1lrZaP2a4Qu3Hg/sZ99RJ33R8vDX6uxXGcLR1H7f4bqtPmLw5rGwfuP9qQEZb77FLsq2x7XxsH7j+7+tpzp5uaXO2TqNRVDN62otrpeuU5Qx/jNBjymPueF9EvJyrFSq7E3fv1Fq9/0a6z0Y610nYuxwB6kMqzRXv6va929Vrt9hxkbu2YovrxHzzslZ5iORsuV0mtzDQo5AIN567euD4PFevL68Odjc/IpdLf+n7Gxpil/Fm/VLoOrjcFiEYxTpnEOGHcxnVNTiMYr4zyutzVNTm5LjNHFHBgluRB0q3FWPJd6BykWgQ56JiPt+SO6A+mXAy6Xi8NlgoH43evl9YdOVJzR7jQprJWm8ccqfx/a6VjOVEaABWDr5db7L9pn0t1f4s7ni/XDLbKHt84cP8zPf5+q00bB+5/OSp1Ffu6rcrcCI5xGgx0zKHneVE5j8tToIp1c9r0TfH7YvBf3k7e7zO5vfFFsKdoz8st31dDv1YjOgeZM1HZ/L7iqHKW/rwVkZoneXbBfQ98uikQ90Je+mMeAnExfih/Vp2vTHXsW90zghzF5/mRUiCvuA4+v3Hg/ksNTx/FOGUS44RxG/k1OY1uvDKS63JX1+TkusycEYxjJsTA95FyWz/1xP0L9eLVHO8j0S90YOPA/Td7/NQOLGJw8sw8VIQqHUuTNsf4cENlsGvVu/Vxh7W8v3xnNd8V35NSujuKGBROxN3dfqrr6GyV9zuiY5w2PY+5jRb9Msq+ORhf9hq319X7akznIPNhR+AmB+LmPUt/Fv3z33kr/dBf/Fw6+SOfKy/1UcjZcI9dvXE9F8W6MSeHXM6KuxxT9crBuIPxuVYrgnn9ghwpstT6BvaGNOlxwrjt+pqcuh+v9LwudznWdV1m3gjGMSt2lBT9lvd93cKtzZKPNx93xYV+z6MTj1cz2mLQUg7SXYupCHti0HCsWhFzWtUMfvLg/u7S4KfVIsN5qsPqa8/trfw6T1e4u2YtmMdLA7vtaRrF1Jj8BSOmONxbeXxbebC2N7elmBoyqmOcYrcdcxs1/ZLP2WMjOI+LqTl5G3ujfcU5cLApg6PmfTWq9tQZ5znIjIolMx4ot35RsvRnyc999uX0PX/2Qrr8D16ra/UvpJSW52nt3fhsLAfjtj/n4zOrvH5Wr8/WcsbbVgTG9sZn672loNFWBEFGborGCeM21DU5jXe8MvB1ueNrcnJdZt4IxjH19i+vrJang2Sf+rHFyoor1Bz3fdE/TNaVmsFGecCQB8L3ltfdiMHX0RkJyJUHYHnwc6xYHDcGP8fGMDAvf6l4uO4BsXZMcRd0KaYu9LO9VknNoH4Sx9iVpmNuo9wvV+IO9K2B/i7O49PF+yG3KwbQ5TvaTa/licr7alTtqTOuc5DZ9kB5yYx8k+xPfc0dXtIp8Vv/5HfT9538+e11dmuy4d5IKX3v1RvXH5jDNXfXSp+NW5WAzPnK4+pUP1vvjsDY9nUjf9atvvbcwxHsuXtKFsif1c/o3VyT0xjHK8Ncl7u8Jlfb4LrMzFPAgVmwI/vr+IMHF3bgm487H/+Fizuuabl/TFcdv17FDq7UDKrKmXK1Fczy7/Iis5W70dOofCxN0ynO91rbZBCxZk35S0WeEtO0hfK0iH5Tay73WDS402PsUK9jbqN8vLVfHoY5j+sWhM6/K63xUp3KUygPqsf2vhrjOcjs2zFFNa/pynT46Z95Kf30z77U1Jafyq/dHBe+2pEVV/lsXC9lL+XKpGs12Vh9P+tTBHtG1+ThzfBn9G6vyWlc45Uhr8udXJOT6zJzSjCOqbZ/eSUPeu8q2pgXSV70imX5+P/O3/vN8h3fu3I/zUkVsKk1RHn5W4OWXlMQ8t96DCamRd9jGfFxLFX+e1TFEnoNgLs+xq7sdtA/bedxV+0Z1znIDItM9FtjklxYSeGGyfu1X/+n6Uc++Vz67S/8Xl1bXs2Vb6/euL4xr8cf0xbLgZcTfdZ0O1IzlfHW8wepaj1Bs/oZPYoq7NM0XulyjOC6zNwxTZWpFeuyPFpuX16XZdEXSc7H/4nHvrP660ejv2BRbfWbBjFEQHXmLeIxT1Dfc5CZt2NMcvyjsuIm6fd+/9+lv/zXfjl9/8nPNgXiPnn1xvV75jkQFwadhneiTdXqOTTxz2jX5M65LjPVZMYxMRE8ylWsnm1ow7nyuizvOfAu00HCh7/7G9OFz76cfuu13y1+dUf01/G6x+e+nuOpGdPqcnGnuWFKSEpfKtE+7a4Udz+bjmXEx1GdBtPF+jRdH+Os6NsvHfdNV+2ZxDnIFIvq5R8st/DDH/gmL9mEPP/Ca9uBuIYg3AuRDffKIvRFU1GGPtYqUxxbjVmmyCJ/Rk/TeKXLMYLrMnNHZhyTlKdVfm7/8sq5albX/uWVe1JKHyv/7hM//B1erJKa/vhY9NsOMa3mxv7llUcbNsV4lO9+Pll3Fzp+17bS0607e3XTTyrl20d9F7B8LE2D/mG+DNSKwVX5GLqYitDpMc6Qcr88PoLzeLc6ac+EzkGm246bXR/6wDcufKb+JORsuB/6i59LJ3/kc3WBuLdSSo9dvXF9dVECcVHJvbwm1rFY47bupxwoqV7P+o5ZYn/7emTVdTZOWfDP6Gkar3Q2RnBdZh7JjGMaPJKrk+1fXnmgNHjaUW7+yLcdSN/6vq/3YpXk/sj9Uinbn/ttu7pqBDjPRP+mmF4zN2X8uxYD3kY1Uw/Olyqq/v/s3XuMXNW96PnFUXQ50gSc5g9umADeZVdnxMhHJu4WSENEN6FbV2rg+sG0eUZuS9CONZKx0QT3TExszklGbjwTG6SR7QbJHZ3DI7YSnJvEGslO0s4c/iBy+5B70UVDF66CEJFrjdI8MtJBupJHv+K3m1Wr1q7X3rXrsb8fqWVcj11rr72aWv7ttX4/mShf0AS2pzSZ7aQ+H5Wo3nXKeu1Bzb0RTqynnYlO0ne056zjjy0MTpzUBM+LmlB3b4zCBlGTejvZ76T9meaLHDmTOhkLq9W2WpnMtPkce5ndL9IPZ2Uch3e/WxjHcc1Z1dva3Z60xyC6W8UNLVbqp+/EqxfKRRo8VVLFz3U1XKnPu8FlrzharLWiTecN4euH5P9h1soid87y7sLgxIw1ZxnS//fKj/x92LMqqV3zlG6ZJ3SLbpqvpPmdbPheRr9hZRw6plAqysT2Li01LwmR/0UKEUhQzhgzYreLVXF+0i9S1MIykg9yU7pCbsEKxEkVsapVc2jK2Vo/C4MTf7HvCOqXv10SXiYIUpFKXndFJxMNT060+lZ4R3AgPJb+HLQmq4sJVOpyP/uSp7z9BT2PCy3kq7En8HIn9aznM085W2hWPlM/9127OlzcalltOMe+4OkXGbMnrevQ1DiOK832pD0G0b3ke9VOm3HbhpvMLV+/niuWkg8+/Ng8vPMV88PDv/EF4mQ13OZCqbgpa4E4nXPY3001Cy/oTUP7+3faem7ZqRo/4MxZLlivH/AFexKep3TdPKFbdNN8Je05At/L6DcE45A62S6pWyeNJtW9Ve9oiv3GmJ/Ybdr12B3mxhtWcaE8pF88d+dl9du/GGPWW5NUuVv8kayW821lRSIG3AmHViTboQlkozRzx268ztaORWcynRidOO9I6DzcfzB47+COLp3Z0UDlMfncHeFd0TgSPsek2Z+dajsa6BeTZpsa/L1K6rNSHYPoWhWr4sgVlx5ZCXffo/Pm9xf/6PvMHxtjghq5h/vdGmfVWCOrzezv34pAhf4/bNiTm8t1qkbF1aTmKV05T3CO6fvvVHTTfCXN72TD9zL6DME4pEoTIB82xvw2zBUnQSK5oylBI2OM3PL8N2GbvvbVa80UW0Fqkv6RfrKEkcuf25NUDYDKNuAFvQ6oQe8gN7ON4pxvAqqTlLV65/CcNVk5p481PMDlzvXo0plhnfSE22KX9b9l0tHIcvwZ509bOLGb81X8ss7Fvvu9qJPmYT22uyLQdx6z+ppwwh/5+tGlM2EfzTn9u6jvW1vjHwX1ztf3ebHPUfsubFO9IFajws+ba2By2dQ5N/Iep19843htA33TSLsaaru2Z9hqT2hRH9vhPBal5pg3yYxB9DD97lwfnoGsRpciSmivt9+5XA7CPf+id1uq7Ki4q1AqTmW5OJV+F6x81zS4HS/8/9iyL6AhxxxdOhP+//yU9f/6le/B0aUzW2u0KYl5StrzhKY5fV/vuzbx72ST3Jwske/lNL+TDd/L6CNXXblyhev5xWTrt9ZD5yUBbAeb1Jc8ecz+IPEkyRWnAaL/KHPd8Nz/+//u35p/+j8fJElyHf/LD/8vc+o//Ef7Rf8qBWjDLRuy/VdXHRqdxG7KUJWxrqdL60PjlL4HWqdbt85aK1VndeLelfJBbsFJzXCXrhpPnPNdIJ4plIoHGG7R8kFu3i4oJav1dz1+Rxe2tD9IgYbnX/hnM/+TyH+vPyM7AKgQD/SGXvtORnvkg1xF0KlQKl5FV1PAASnTyZNsU5XVWqf1brPkipPJVWAH4sR//n/+ixnZdMw8+/0JMz4yyOVyyKT1qb8/4xZxEH8rQU9ZfWiMmbfu6v9YExwziQXQ0zRRtWxdulQnWTR3x9ESvYFYUdl9C6vi2uaNi++bp54546uSauybt/1xtkB/4TsZaB7BOHSE3PXXlXASKNro3Kkv+9++9+/MP578F/P20uVyCfupB4bMrse/ySo5JZNWKe8fbt/Ycs8687NfvWW/RP4B8T8aY/4bzR03leG8KgD6z9kwX5JW7fPZ4an4BzSqIlecfM+SwzZ5cmPxB4d/7c5hQjJ/OVAoFakGD3Q3vpOBJpEzDh1j5YrbY4z5r3Y7ZMK79d+vN7/4p6lyEE7IloX7Hj1RrqqVZeVJ649+bR7Z+Wo5ECf54n7xj1Pl1YPSbw4JxJ3PeIJjANm0g5wxiGnKfju54pJ39vxSeQdERCBO5i+3EogD+gLfyYCDYBy6wUfuKs3/8v/+tRx0EvuevNu8dPTBlSIF1375bzN90T7567+an+qkVQKVv/in7eaWr19f/vsdtwXmquod+PNsS+16Ye6Mc+SLAxo27CSuNlayaJI3I5Z8kJNA3OrwGDIHuX3DzXRqQuTG6sM7XynvfPAUaJC7rtsld3OY+xZA1+M7GWgSBRwUBRw6Q/OxlKwKoCukYtmxQ5tXJr8SnJNAFFtEjPnpL98qb9cN8+g1sMUjICAHAN2HAg7dyb0us09PsDIuISdevWCef8FbJdVoJfhMV0kFgH5DAQc/Vsah03bbgbhwy6X8KZM02YopWzIl2CTBJwJxn5N/EISBOMkdJ9t3w0CcVHoLVxGqVW7eGwAA4Kc5bVcCcXJzkCJS8b39zmVz36Pz5oeHf+MLxL2ngehNBOIAAFlAMA4do5PdisINsiVVtlzK1ks7V9x3nvoZF8pD7i5LwFIqj0kATrbz7nr8jnI/OvZrfwMAgNoqVgvef886ikfFJCvh7vv2fLkol8dzmhuuLStCAQDoRgTj0EkVCXlv23DTyp1nmfRKQOnos5vLd6S3PzjMhfL49NMvKqlKADPc0iv9KP3pIAEyAAA1aPqMTfYrph5iDtIqWb0/svGYef7F131H+IOuhtvNajgAQNZ8iSuOTtAcfRvtj356T9VqrnJQ6V9+/QTXKIKsgpOVhL7tM9KfchfaslH6nTvPAABEmrLTZ8iNLVJkNE/Sizz/wj+XdzdEIF8hACDTWBmHTqlYpSUru8KKoGhOVB4b6c9wq69lnu4FACBSRY5VVuY37+z5JTOy6VhUIO68MSZHIA4AkHUE45C6fJCTie768HNlG+o+z6o4xLfr8W+W+9eyWvsfAABYdNX+6vARycVK4YbGyWq473z3NbPzqdd8BRqksvueQqkoK/RLXXwaAACkgmAcUqW5WCruhspWSxIjt4f0q/Sv44BeBwAA8IWKm1XkimucFJSS1XDnfrfke8/PtUADuWsBAFAE45C2A3YuFrnrzBaQ9pL+lX62rHIDoqiWD3J780HuivzZT91jndfxBl7TV+eO1qQ5HmRc6mdNt/j+6XrjG4gYO4Gby/b+e/6Ovqrjgw8/Ng/vfMX88PBvolbDbS6UiptYDdc+/fydXW/Ownylv/TD9cwHuYF8kDur53EhoWOO5YPcyXyQ+4se9y/697Em2yX9+64e4139+0CD75fXXtDPlvNbE+ukUEYwDqnRiW5FNYZn909wAVLg6ecn8kHu1n481wQd1EMdTOXT0hOeT61gR7+eO1qT5ngIx+Vki+8P39dSMA+ZVrEqTnLZsmq/tudfeN2Mbjpufn/xj77XPWeMCQql4ukuanK/6ufv7HpzFuYr/aUfrqe0PQySDTUTMHNpAE0C0Wd1fhMGzgb072cbufmoAbez2rYwiLZG/143sKafEV6TU3JexpgLBOTiIxiHNFUUD5AKZbdvuJkLkALpZ+lvB9tFAHSbS9qeS1wZpGzK/jhW7Ud74+L75r5H583zL77ue817xpi7CqXi7kKp+FGXNBkA2k6DVnbgeLFQKp6L8bkHG7i5OF1nt0sYiKuq6qfk8ZNRK+Q04Dat5zJcKBV3GGN2aECQFakxEYxDKvJBbpMxZsT+rGe/z6q4NHn6e0SvCwDF4YQXAAAgAElEQVR0i3FjzFZjzAxXBGnJB7kpO4WG3Lyiwns1KdDwgx/92jyy81Xz9tJl30ueKZSKshpuocNNBYBU+QJxOqdpST7ITTrHk3nRdYVS8Sr505knTddYgTdtBeKWpU16jGH9u9Hno4J+4XFnwwcKpeIpvWkaFeBDgwjGIS0Vq7CmHhgyN96wis5PkfT3rseqijmwOg5A1yiUipdkklcoFZe5KkhRxRZVcsVV+3w13Akz/5NF39N/MMZ8o1Aqko8WQOZEBeJizmXsdB0zhVJxNjye/Cl/dwNy7gF0tZu95Xc8XKlXKBXdYOHBiNVxa8wXATjbKYJx8X2p108A3S8f5GRytjps6DVflgqf3+TKdcDUg8PlimdWkuXVcn2YQNemiWQn9Uvnkn4BzTbyJZsPcuHdpjH9QpP3yBfhnC7xPin/rcu+3feu0SXg4Xsv6Xvls5vaxueZKMhjV8Iv+Brvm9ZzH9O2y5e3BEvm6rznuJ7jjH5u2H/nCqXiuPP6Aec1Rs+z5uck9f52H1/vVoZjYMC6jqf0MbnGO3zHsvsyYoyEz9e7jpPWdbTbMKtti2xDHM2OYWu8zehE0Xcu7jHD36mGt4K0ek2T/J1Ed8gHuVFjzPqwMVLw6P5713F1lKyGe+rvz0RVSZUCDQeokto9+mG+YlqcszBfaf273uqHWe27aWsMnGr0OtYYQ+H3c+R8psHza7n/2vX93aZAnLFWpBkdnz5zVrDNtzLODujNufMq+Xs+yM1Z7Z+2V8Ch/a66cuUK3fzFZOy31kPnC6XiaAeb1BfyQe4rxpiSvf1j9ukJJrod9NNfvmX2/sMZuwEfa5JlcrtYdNJXS7jU2xswMF9MihtKQqtLxu33DmmOh6gqRzJ5aHgrX43zkbtr1zX4WlvkZEOqLFmTgkXPnbPhsN8aOM9FnThGBWZivb+eOMe37kg2UkygatJvnL50x0iDzw/o5LeRgghRbVgZD77PiNLKGLY+K6otLf9OWcdo6Zom/TtpHXfBSeNwV7u2+enNsf3WQ89k/WZMPshJPttt4d9lBfmux6tWkWeSzBd+cPjXviqp4rzc46NKauf123zFNDFnYb6ycuxY3/VOP/gsayC0VmAzie/nyPlGzPlYu76/2xWIk2P/JWxvrblXnT47aY2JrZ7VbWEA96T+VYKaW53nw0BtxfulGqv+PjaUYNX9XW1mPtnP2KaKdjtiB+JuGbyeQFyHSf/LdbCsYrtqSwa0AlFUwlN3UhLeHWz07ttJa9IQvtf+cm82aeoOz8qhczFycw1ZX971XlfxeTUmtovanlmrn+Q1x339HPf99SRwfDcQd8lzHdvNnZyn2YZEx7BOCOP8TsW9pkn/TqLD9IbhNrsVW5ijmA8+/Ng8vPOV8o07TyBObuBtlhvWBOJ6Rq/NV0zCc5a+n6+04bveHQMDuo3RWz0zgTFUUwL9l/gYbWcgTq2Mf53/+NpQ72avfb2idg/Yj/uub/j8Sh9pAG+NnjNiIBiHtskHuVvdSe6+J79Fh3cBz3XYpqtD4WcnPF1rffkM1MjRYH+xy4ROkq7KMdZqjobIL2ud7IRfiPIluFbfGyZsvVRjybqX3M1074TqMesdZ1nvNF6l57/DavtYgyXbF61zsJe/H7QmRzu0SlP57qT2UzjpjkosG/f99bR8fGtrqt2H7nVsK23DpNWG8bTakPQY9uQ9aep3ytLSNW3H7yS6QkWuuC33rMt8PltJZSGVUn9/8Y++p3+uK+lPp98yNKjn5yum9TlLJucrbfiut/tgrXX9vNUz446hBsWZjyU+RjUI1s5AnHGCZAc1AGa3YdKZF/kCnysB5qi2OY9X5YDTLbzSP0P5IHdBg5DH9ZqypTUmgnFop4rVVmN3DprbN9xMh3cBuQ7yjw4HeeOibbUSnl5yEp76Jk3T1qShKr+JHmur530h94txWu8KGp18rG0130YLKrYl6H/bE7t6k9tl7b+KSYKez0qFJt8E20lOuzfJ99eTwPHtcVH1fn1vuycxdhu2uuX1Pcl/k5T0GI77OxX3mnbT7ySSM2UfKcsr999+53I5CPfDw7/xrYZ7T7dPbyKlRddjvqKyMl9pw3f9VjtAo9cv7BPfNthJawzNtvL9XEsC/deOMeoGttZErCprmZ5neC3LORtla6hsKdYtoiedbbdty1ur/RP276QGH4fJlRsfwTi0RT7ITdk5cKRoA6viuovkxJHrYhnR6waHZ2KzbH1B+r587TtLVfkZzBfH9H6J6fHtO5Fy50vuRv1F7kg1eHc3ERGTHvuxepWUohLj2uewV3JJ+H6su34DzvaIuO+vJ6n2XapRWKHdK6nsNkRtT/COz7jaMIZj/U6plq9pN/1OIhn6fbdSXErSN2TxhqEUaHj+hdfNfd+eN28vXfa95DljzK3tymOIZDFfqflYv89XEvmuj+gDe7tq1OebqHlNA9/PtcTqv3aMUc2dZp9ruBU86eqiW51rt8YqQOHyXfuVbaQ1tqkP+F7v0sDlsLXqkUBcAgjGIXGag6VildX2B4czv/Wj28j1kOviOKDXD/GsfLHV+bKq9dyMZ1ITbjORL/yGkuR2gaQCTssxtznEfX+zxw/HQOQ1TmEi0+k2JDmGk/idapZ7TfvldxKfq7j5NFX9fdj33rj4vrnv0RPm+Rdf953qH4wx3yiUirtZDdfXmK98oVfnK53+ru/E93Mtvv5LfIzqarG2BuQkkKgFFcY1KBee17InwOoLxtl9HhV0tB8nwJayL2XqbJGW3fbd5q999dpMTnJ7gVyXn/7yP5k//fmTsLWr9fqxZTWelUmA3J2rMTmJvPOpd/J25IPcrFXCfcya9MjdwXM17oJ2hRr5M+zH3TuMPovOseK+v54k2jdQ6xo3eee7FR1tQ8JjOPbvVNxr2i+/k1jJaVuxen98ZDAzPSOr4aRK6s9+9ZbvaSnQcCTrVXYzhPmK6vH5SifnG0l8Pzd0/Fb7r11jVAJy+SBnrK3CYUCuZvXiZmm7KtqmRTPCbcOLEZ93znrNWMQKSTsYR0GGlBGMQ6LyQS5wEyLvevyb5tprrqaju5BcF7k+UjHNsjsf5OapkhbLovXlN+nLDabL4utNnJZ1UjNrPW5XrBqrUR2p29ntHtOEvM1MPuO+v93HP6WTszWS6Dci6XQjSZrrTXLXuK+zhJMwacNYxCTTl/8lEQmPYXtCOe3Lf2NV96p1jFDT1zQDv5NZUjFPuf+edZmZp5w9v2Se+ntvlVRxXu7T8f2fKcxX6uuF+UrHvuuTGEN1xO6/do7RtAJyNk91+aicgKe02ILRXHlzdpt0FZ89F6UQVcrYpoqkyZ3Ulf2ot224KdMJkXuBXB+5TpZVbvENNG3OCo4c1C/7FTopiSyzr89LctZ33ff2C6s6k4la2i/nrpWbqvog7vvrSeD49t1HXxWsvQ0mabYnhift3B5a0Sqc3PrudtqTqpNuXhRnEpqoNoxhe3vGXu17uy8mrQmnV5xrmoXfyazQVAyb7NOdeqj/V+9/8OHH5jvffc3sfOo1XyBOVsPtKZSKowTiMof5Sh3dPl/p5He99fktj6F64vZfGmM0jS2rch56nmed+c5c1Io+DVragbqz4fjQP89az80kHCRGA1gZh8Tkg9yoMWabfbwnHr+DDu4BT++5u5y82bJRricJm1sjX2a6FD6c/ISTk8UGKy6FX94Ddd7byl3mcDuD0S/0rR388p2xqnANaULdS5qzYshJFOwrghD3/W1rn0yM5A6kVanuZI33RpIVdXoHdEh/ZDLpjgVveXltwzlrK8bZVtrQokTHsP5OzVgT0IMalGv0dyrU6jVt5+8k0jVl3zSUSu/9ntP2xKsXykUaIlbD/VxXw5EXLoO6fL5i3DmLJI7v0FXq2vlKh7/rkxhDjYjTf6l8f0eskJO533DcebbO13053+YaqAQ7Z23NDceH+5pFVsV1BivjkKSK1VRb7lmXycpkveiWr19fvl4OVsfFoBU07QnBQI0KSBUafO9Mi/lX7C/bsQaqi7WNTk7GnYSxa5w8HuU8HxH9FOv99STQPvdOqfveRu1wKpmNOYG4rTVytGx1JpittqEp7RjDutXX7uuGf6esY7R0Tdv8O4l0VW5R7ePV+2+/c9k8vPMV88PDv/EF4t4zxmwulIqbCMRlWxfPV4xnztIR3T5f6dR3fUjHgb0Cq+nv5zrHb7n/0vz+jpj3JdEH7jGWtc11x4vVd1FbZuXxcVbFdQbBOCQiH+TkTvP68FiSDHnfnrvp3B4i10uum2W9XtesCicVtfIwmFp3kgql4ox+Ac5ZX4JhBaRxnTxFrWqS967V56req5OLVtiTksWIL+d6526ft297ZN2+sc5TPn9YP8ueCC3qY2tr5dyI+/4U2rfDGgPhJDLccrG2hTa4xxiuNYHUSlzjOkE9FdGGmYjKXKFGxoPvs1sZw7XGVRiQC48Znvclz+9UZFtbvaZt/J1ESvJBbpNbYKpfCzfISjhZ8f77i3/0Pf2cMebWQql4Ov2WoQ36db5inDmLr/3MV5L5rg8fizOGZvX87PlO+Hk7rK2s9SrzetsRp//S/P7Wed/KmE0ob9xWPccZvQF7XTNttgJy7jxyhkBcZ1115cqVLJ//Ct1i+VvrofOSO6PDzeoJmn+lZG/72PXYHWYXW1R7jkzen3/xdbvZkkcm4K450B75IBd+CZ/r4PYbdFA+yC3YlT2NMXe1K0VAPshJXtf91kPPZKlqZj7ISfBpY/j37+35ltneZ9Xe37j4vvnBj35j3l667Hv6Pd2SSgoKAKlx8tY1srUSfcaa75YVSsWruMbkjEMydtuBOLnTTCCuN8l1++kv/5P5058/Cdu/Sq9vZv6xBgDoP1rtfSUQJyvB77/n7/rmPD/59DPz/Av/bOZ/ErkII1OBVwDp06IAQ3qDcVGrmE47BatYRQ4otqkiFp3c2nfZzb4n2Z7ayzzXb79eZwAAelVFrjjZnnrtNVf3xcU8e37J3PfoiahA3HljzDcIxAFIwUldAXdBV0K96wTiZmrkuAUyh5VxiKsiyf9tG27q2/wrWSHXT66jk2dGSq2ybRsA0HM0nUZFDtR+2J4qq+Ge+vsz5tzvlnxPS5qJA4VSkWJMANJyKaIwWDnfILlVgUqsjEPLNM/eRvv9T1O0oS88+/0J9zRG9HoDSFatxNQAkrHJTqchN5ykingv++kv3zIjm45FBeJ+rgUaCMQBSFNYRGJOiyyc0iIBwwTigGqsjEMc8/Z7px4Y6vnJLT534w2rytfT2fIi15vtqkCCtMJXU1VKATStYotqL+eK++DDj8ur4SKqpH6sBRqokgogdVqVk5uLQINYGYeW5IOcTGxXh++VRMi7Hv8mndlH5HrKdbWs1usOAEBP0FXd68O2SpGp++9d15MXTyqe3/fofFQg7sda/ZxAHAAAPYBgHJqmuVcqEgFLFc5+SYSMz8n19FTFPaDXHwCAXlCRK+7+e3tvVdzb71wuB+Gef/F18+lfP3Offs8Yc1ehVJQVcR91poUAAKBZBOPQigN27hW5y9wPiZBRTa6rXF/LKrdoBwAA3UgrgW+zmzbVQ/MVKdDwgx/92tz37Xnz9tJl30ue0dxwC+m3DgAAxEEwDk3JB7lbjTFP2O95dn9Vsn/0Ec/13abjAACAblaxKm7LPet6ZhX/GxffN/c9esLN3Rr6gzHmG4VS8QCr4QAA6E0UcECzKlZFSUWy2zfcTCf2Mbm+Y3cOuhXbZBxQXRUA0M2cLardnyuuvBru8K/Nz371lu9pKdBwRIJw6bcMAAAkiZVxaFg+yG0yxozYr3/2+6yKy4J9T37LPcsRHQ8AAHSdfJCbsgtN3TJ4fdffPDx7fsmMbDoWFYg7r1tSCcQBANAHCMahGRWr4nY9doe58YZVdGAGyHWW6+0gdxwAoFtVrIrr5lxxH3z4sXl45ytm51Ov+Qo0yGq47YVScbRQKpY600IAAJA0gnFoSD7IHbDvMF/z5at7Kgky4pPrLdfdslrHBQAAXUPzmq6s5Jfvrm7donri1QvlSqm/v/hH39M/N8YEhVJxPv2WAQCAdiIYh7ryQe4rxpjd9uv27bm7Z5IgIxlyveW6O3ZrtToAALpFxZzl/nu6LxD39juXy6vhfnj4N77VcO8ZYzYXSsVNFGgAAKA/EYxDI2Q74sp+VMm70gtJkJE8ue5StMMi44LVcQCArqA3ECtymk491F0r+Z9/4XVz37cjV8M9p7nhTqffMgAAkBaCcagpH+SkYuY2+zWeZP7IkCcer8odt03HCQAAnTZl30CUauDdkt/2jYvvm5GNx8zzL77ue/oPxpi7CqXiblbDAQDQ/wjGoZ6KVU9b7lnX9dXI0F5y/bdUb/lhdRwAoBtUbFHd/tBQx5v0yaefmR/86NfmkZ2vmj/9+RPfS54plIqyGm4h/dYBAIBOIBiHSPkgN+UmQN5VvSoKGSTjwCnmMKLjBQCAjsgHuU12samvffXajt9APHt+yYxsOmbmf7Loe/q8MSZXKBW5oQUAQMYQjIOX5lypmBxuf3C4a7Z6oLNkHGyvrqZ7QMcNAACdULEqrpO54mQ13He++5rZ+dRrvgINHxtj9hRKxdFCqVjqTAsBAEAnEYxDlN3u3eWp6uALMkzGg4wLy2r3H0IAAKRBK3tXrOa//56/60jfn3j1Qnk13LnfLfme/rkWaDiSfssAAEC3IBiHKjqhrQiq7Hr8m+baa66ms7BCxsO+J+92O2S/jh8AANJUMW8ZHxlMfd7ywYcfm4d3vmJ+ePg3UavhNhdKxU2shgMAAATj4HPErkR224abzP33ViXsB8r/2JHx4eBuPwAgNZoioSJvado5bp9/4XUzuum4+f3FP/qefs4YExRKxdOpNgoAAHQtgnGokA9yo8aYjfZjT++pWv0E1BofG3UcAQCQhk3uTcS0cty+/c5lc9+j8+b5F1/3Pf2eMeauQqm4u1AqfsRIAAAAIYJxcFWsatpyzzpzy9evp5MQScaHjBMHq+MAAGmpKDiVRq44KdDwgx/92tz37Xnz9tJl30ue0dxwC4wCAADgIhiHFfkgJ1s81od/l+TH+1gVhwbIOJHxYlmv4wkAgLbRldgVBafanVrjjYvvm/sePWHmf7Loe/oPxphvFErFA6yGAwAAUQjGoUzzrVSsZtr+4DBFG9AQGSfbq6vtHtFxBQBAu1Tc+Ln/3vatipPVcN/57mvmkZ2vmj/9+RP3aSnQsKdQKspquDe52gAAoBaCcQjttvOtyJ3ltJMfo7fJeJFxY1nlbh0CACApWr17m324qeobQ4k4e37JjGw6Zs79bsl3uPO6JZUUDQAAoCEE4xBOZvfbPbHvSbanonnP7p9w3/OEji8AAJJWsSpO8pcmvaL/gw8/Ng/vfMXsfOo18+lfP3OfltVwmwul4mihVCxxdQEAQKMIxkHM270gVcjGRwbpGDTt9g03l8ePY56eBAC0wW77kEnnijvx6oVypdTfX/yj7+mfG2OCQql4mgsLAACaRTAu4zTx8YjdC89+v2p1E9Awz/gZ0XEGAEAitEjQSnqNWwavL98QSsLb71wuB+F+ePg3vtVw7xlj7iqUipso0AAAAFpFMA4Vq5amHhgyN96wKvOdgtbJ+JFx5GB1HAAgSRVbVJPIFScFGp5/4XVz37fnzdtLl30veU5zwy1wJQEAQBwE4zIsH+Rke8fqsAeu+fLVZtfj38x6tyABMo5kPFlW54McxRwAALHlg9yt9qp++b6Ju0X1jYvvm/sePWGef/F139N/MMZ8o1Aq7mY1HAAASALBuIzKB7mvuJUupRpm0omPkU0yjjzVeHfruAMAII6KXHHbY6yKk9VwP/jRr80jO181f/rzJ76XPFMoFWU13JtcMQAAkBSCcdl1xM618rWvXhtrMgu4ZDxJDh/LKh13AAC0RG/qbLPfu6XFVXFnzy+ZkU3HzPxPFn1PnzfG5AqlIqu6AQBA4gjGZZBu76iYyD67n6INSN6+J7/lHnObjj8AAFpRkStu7M7BpnPdfvDhx+Y7333N7HzqNV+Bho+NMXsKpeJooVQscYUAAEA7EIzLporVSTKRTaoCGWCTcSXjy8HqOABAqyq3qD5UVTCophOvXihXSj33uyXfy35ujAkKpSLfUwAAoK0IxmVMPshtspMeG//qJSAxnvE1ouMQAICG6XfHSuEpSbHR6M1EWQ338M5XzA8P/8a3Gu49Y8zmQqm4iQINAAAgDQTjsqfibu+ux+5oensH0AwZXzLOHEco5gAAaFLFqrhGK8A//8LrZnTTcfP7i3/0Pf2cMUYKNJzmYgAAgLQQjMuQfJA7YN9RvubLV5spijbU9cbF98s/Ibm7Ln+XP9EYGWeygsGy2v1HFQAAUfJBLrBX9sscZnykKg1CBfmuli2pz7/4uu9pWQ13V6FU3M1qOAAAkDaCcRmhk9iK4Me+PXeba6+5OutdU9cjO18t/4R+9su3yn+XP9EYGWeeFQy7dVwCAFBPRVVTCcRFzWE++fQz84Mf/br8Xf320mXfS54plIqSG26BXgcAAJ1AMC47ZBK7sh/1tg03mfvvXZf1PmmI3H03uiIOrZPxJuPOssr9xxUAAC5Na1CRa3TX41XpD8rOnl8y9z16wsz/ZNH39HljzDcKpSLfPQAAoKMIxmVAPsiNGmO22Wf6RMQkFtVu+fr15cf+RDAuNs+426bjEwCAKJvcG4puvltZDfed775mdj71mvnTnz9xDyNf4HsKpeJooVR8k14GAACdRjAuGyruAG+5Z13D1ceAJMm4k/HnYIUCAKCWiu+J7U6+25/+8i0zsumYOfe7Jd8hzmuBhiO+JwEAADqBYFyfywe5KTfhcdTWDiANMv7Crb9qRMcpAAAVdPX0SvEpKQYUFm6Q9BEP73zF7P2HM+bTv37mvlVWw23W1XAlehUAAHQTgnF9THOsVN1Ndrd2oDnXXEMOuThk/LmrGowxR3S8AgBgqyg+df+9f1f+8/kXXi9XSv39xT/6OuvHxhgp0HCangQAAN3oS1yVvrbbvpsspLx/RIl/1GFXVBU/+9Vb5R8kYpWOV7asAgDKtOL2Rrs3bh+6qRyEi6iS+p4xZooqqQAAoNuxMq5P6QR2f9b7AT1lv45bAABERQoDSXEgN8YiAnHPaW44AnEAAKDrsTKuf5GoGL3oiFbNAwCgYouqJy+c+IOuhqNKKgAA6BkE4/qQri76ilYQQ3zrtT9lwv+R/vd6/e8/0L+J+oqMX5JtA0C2aWGfWkluJXHrkUKpSHoDAADQcwjG9SENZIxmvR+Skg9yC1qRdrdsf9HKbr+VQJxUaeuPswQAoKvsrtGY87oajhs3AACgJxGMAwAAQNfIB7lbdQW662O9MTbP1QIAAL2MYBwAAAC6iW9V3M91NdxHXCkAANDrCMYBAACgK+SDnORl3Wa15T1dDXeaKwQAAPrF33AlAQAA0CXsVXHPGWNuJRAHAAD6DSvjgOZ9pMmj36TvAABI1JRWKi8XTaJrAQBAPyIYB9ThVkwtlIpvUq0WAIBk5YPcJmPMfKFUPEDXAgCAfkYwDgAAAB2n21HZkgoAAPoeOeMAAAAAAACAlBCMAwAAAAAAAFJCMA4AAAAAAABICcE4AAAAAAAAICUE4wAAAAAAAICUEIwDAAAAAAAAUkIwDgAAAAAAAEgJwTgAAAAAAAAgJQTjAAAAAAAAgJQQjAMAAAAAAABSQjAOAAAAAAAASAnBOAAAAAAAACAlBOMAAAAAAACAlBCMAwAAAAAAAFJCMA4AAAAAAABICcE4AAAAAAAAICUE4wAAAAAAAICUEIwDAAAAAAAAUkIwDgAAAAAAAEgJwTgAAAAAAAAgJQTjAAAAAAAAgJQQjAMAAAAAAABSQjAOAAAAAAAASAnBOAAAAAA9Kx/kvsLVAwD0EoJxAAAAAHpSPshNGWN2c/UAAL2EYBwAAACAnpMPcqPGmBNcOQBAryEYBwAAAKCn5IPcrcaY01w1AEAvIhgHAAAAoGfkg1xgjFkwxqziqgEAehHBOAAAAAA9QYs1nCYQBwDoZQTjAAAAAHQ9DcTJirj1XC0AQC8jGAcAAACgFxwhEAcA6AcE4wAAAAB0tXyQmzfGbOMqAQD6AcE4AAAAAF0rH+SmCMQBAPoJwTgAAAAAXUkDcSfstl3z5au5WACAnkYwDgAAAEDXyQe5W91A3C2D15tnvz/BxQIA9DSCcQAAAAC6igbiFuw2yYq4o4c2m2uvYWUcAKC3EYwDAAAA0DXyQe4rGohbFbZJAnEvH33I3HjDKi4UAKDnEYwDAAAA0BV8gThx7NBmc8vXr+ciAQD6AsE4AAAAAN1CAnHr7bbMPj1hbt9wMxcIANA3CMYBAAAA6Lh8kJt3A3Hf2/Mtc/+967g4AIC+QjAOAAAAQEdpIG6b3YYt96wz2x8c5sIAAPoOwTgAAAAAHZMPclO+QNyz35/gogAA+hLBOAAAAAAdoYG4E/Zn3zJ4vdm3524uCACgbxGMAwAAAJC6fJC71ReIe+noQ+baa67mggAA+hbBOAAAAACp0kDcgv2Z13z5anP00GYCcQCAvkcwDgAAAEBq8kHuKxqIWxV+pgTiXj76kLnxhlVcCABA3yMYBwAAACAVvkCckGINt3z9ei4CACATCMYBAAAASIsE4tbbnzX79IQZHxnkAgAAMoNgHAAAAIC2ywe5eTcQt+uxO8z9966j8wEAmUIwDgAAAEBbaSBum/0ZW+5ZZ3Y9fgcdDwDIHIJxAAAAANomH+Sm3EDc2J2D5TxxAABkEcE4AAAAAG2hgbgT9rFvGbyeQBwAINMIxgFN0ipgAAAAqCEf5G71BeJeOvqQufaaq+k6AEBmEYwDmqCTyjf1TwAAAHjoXGnBfuaaL19dXhFHIA4AkHUE44AG6Yq408aY1fInK+QAAACq6RxJAnGrwiclEPfy0TGfF2YAACAASURBVIfMLV+/nh4DAGQewTigcWEgzuifC/QdAADAF3yBOCEr4gjEAQDwOYJxQAO0HP+I88r1+jgAAAA+J4G49XZfzD49YcZHBukeAAAUwTigDl85fss2fR4AACDT9CZlRSBu12N3mPvvXZf1rgEAoALBOKAGXxUwjxP5IDdKPwIAgKzSQFzFzcst96wzux6/gzEBAICDYBwQIR/kAjcv3Ne+eq1ZOL2jXJbfcVpfDwAAkCm+XQRjdw6W88QBAIBqBOMAD6tyakUVsGOHtpgbb1hVnlzK3y2rqLAKAACyRgNxFbsI5KYlgTgAAKIRjAP8jrg5T+wqYPKnZ5Ipr6egAwAAyARN53HEPlcJxL109CFz7TVXMwgAAIhAMA5w5IPcAXerhSQfdquAyd+/t+db7ts36vsBAAD6lgbiFtxdBHKzkkAcAAC1EYwDLPkgt8kYs99+rFby4e0PDpefd+zX4wAAAPSdqHQeLx99aGUXAQAAiEYwDlB6h7dim6lstdi35+6aXSTPewo6zOvxAAAA+oYG4mRF3Gr7nOx0HgAAoDaCcUCNO7xHD22uu9VCnpfXUdABAABkwGk3r+7s0xNV6TwAAEA0gnHA5067d3hlq4VUTm2EvE5e71itxwUAAOh5+SAnOwhG7POQvLr331uVsgMAANRAMA6Z55tYyh3eZrdayOvlfY4RPT4AAEDPyge5I26Bq1p5dQEAQDSCcci0fJCb8k0sW73DK+/zFHTYpp8DAADQc3Qe84Td7rE7B8t54gAAQPMIxiGztMDCCfv8b9twU+yJpbxfjuM4QUEHAADQazQQVzFfksJVBOIAAGgdwThkUj7IBVoJbMXXvnqtOfbslkS6Q44jx3Ms6OcCAAB0Pb2ReMRupwTiXjr6UN0CVwAAIBrBOGROVOXUY4e2JDaxlOPI8aiwCgAAepEG4hbc+ZKsiCMQBwBAPATjkEVH3JL8MrFstmBDPXI8zxaO9e4dZgAAgG4SdeNSKscnPV8CACCLCMYhU/JB7oBbsEFK8o+PDLalG+S4cnzHNm0HAABAV9FAnKyIW223qx03LgEAyCqCcciMfJDbZIzZb59vGiX55fieCqv7tT0AAADd5LS7g2D26Ym23bgEACCLCMYhEzTvybx9rpKAeN+eu1M5ffkc+TzHPBVWAQBAt8gHOZkrjdjNmXpgyNx/b9VNRQAAEAPBOPS9qLwnRw9tTi0BsXyOfB4FHQAAQDfKB7kjbioPWdm/78l0blwCAJAlBOOQBafdvCeSgPjGG1aleuryefK5jtXaPgAAgI7IB7kpY8wT9mfftuEmXyEqAACQAIJx6Gu+7RaS96RTCYjlc+XzHSPaTgAAgFRpIO5ExXxl8Hpz7NktXAgAANqEYBz6lk4uq7ZbdDrviXy+p6DDNm0vAABAKjR37RH7s7721WvNS0cfSi2VBwAAWfQlrjr6kU4uK+7ydtN2C2nHBx9+bH5/8Y/2wyfyQe7NQqn4ZudaBgAAskDnSgtuTt1jh7YQiOshC4MTe40xB2u0+JQx5tzo0pm5WmdlHWdmdOnMbDt7YGFwYtoYc9wYMze6dGZHzGPJcabjtts6TrMWjTHjo0tnllv4zNT6vNtY/b2j3tgE+hUr49B38kEu0MnlCrnL223bLaQ90i7HgrYfAACgLaKKW0lu206l8kDLagXixKQEvhYGJ84uDE4M1HjdQefPdjqux55eGJwYavVz9L1hAC1uu1sJxIkh/WlFmn3eNRYGJ8YSvG5AzyIYh74SNbnsxru80h5pFxVWAQBAWnSOseAWt9q3524Ccf1NAiAna5zhsvNnWmoFCOuJ817XuRbft6yr41p9r/1nFiV5DYGeQjAO/Ubynqy3z0m2hHbr5FLa5dk6u97N3wIAAJCQ0+5cSYpLdTqnLhIxI1smrZ+tTpBpTLeI+uzQ18baNtqrRpfOSH8NO/037pyO27+yPfW6Vraoqkz3OZB15IxD38gHud1uwYZdj91hxkcGu/oUpX3SzudffN1+WAo6lAql4oHOtQwAAPQTX5X5qQeGCMT1j8XRpTPuCq9TskVVV8YZ/bMqR9fo0plTml8us0aXzlStcFsYrLhp7uvfltHnQLaxMg59IR/kNhljDtvnMnbnoNn1+B09cXrSTk+F1f16XgAAALHkg9wRX5X5fU/eTcf2Pzv4NhZ1tprLqyMWBifWyOfLn418vr5uyHms5fxzHTzvjvV5r1gYnJiUgg+a9/CkFL5odJwA3YyVceh5Wg1s3j6PWwa92z+7muRqefudy+btpct2M+fzQW6UCqsAAKBV+SA3ZYx5wn57N1WZR9vZ2yi9ObrC1XMLgxPndMumlwZBpjUQFgaSFnW75ZwWjGimQui0VtZcCa4sDE5c0mPN+baAagDrrOdYFxYGJ2JXaG2VWx1VtwRPaj8ta+XQlZVwLfT5mBWAXNRVdafq9bnVrlltx6R1HLlup5qpaKrt2avtkf++pMeZbeH61/qcIc1z6Abeyp+xMDgxO7p0ZibOZwCdxMo49DRNQjzvFmw4emhzz5Xll/ZKuynoAAAAkqKr7E/Yh5Oblt1WZR5tNWkdPKrYwJjzZxUNLl2wAjGhIX3s3RYqhE56gi1r9P1RFWBrrYBrtSpqElbOfWFw4oJWjQ37acDTtkb7/F3tX/u8h/TzLjTQ5+HjYVDOPs6YVtu9UKfartueaeu6hcHCVq5/1OdM6rnVWgG3VwO5QE8iGIdeV5WE+NihzebGG1b15GlJu18++pD78Go9TwAAgIb5dg987avXmpeOPtRzNy3RPAmu6KooOwjUUo4yDcIcT7n65VDECri5GtVPu2WllBswXPbl6qvF6vNakroeQzWCn2UNtic2XXlnf845LZZxlTFmrXONp3WMAz2HYBx6luY+qUhCLNXAbt9wc09fVKmwKufhGNGkywAAAHVpIG7B3T1w7NAWAnH9S4IpV8IfY8xfnBVKl5oNCBkN6jnHkdV1WyU4ogGSrTVW3DVCAoRrrWCLHTAccivAytZV3dY57jx+VdytkW0ggaPrtOpqw4FQT0AqqT4Pt8vKMa7T9oVbgYeiVhZ6xoAEyIYjrllce60gY3kLb1g4Y3TpzCW9xsPWZxCMQ08iGIee5Mt9IkmI+6UamJyHp6DDNj1vAACASFFpPGT1vdz0QyYtazCnKgdbA6at4MglXaW0EnzR/x5vMTgk+cqkXZfMF8GWrU5wp1eLHJTzpsXo89Bign0+E+aH06DmrLPSbDLiffYYWNQA2aKpvGZJVZq12+DN/6efHbZ7QLe1Aj2FAg7oOXqntyr3Sb8lIZbz+eDDj83vL/7RfvhEPsi9SUEHAADgo4G4BTeNhxSKIhCXaQO68qmVgJkd6JjxBZfkMUmorwn3mxG1ouqU9bm9GIw7F3OVnn3O3oBeK33uK9Qgj1m516Ly8dljIOq85uJeKy3aEAb9ysUmFgYj/41nb6mluip6Divj0FOsCeaKMPdJP5LkynJ+joV8kAsYuQAAwGPeDcRJ+ot+2T2AmmZ0tVT4M+NUUj2u2x+btRKgqbXVspltmJaoVWN1K8B2ubjbZdvZ521pT0JtGXD++2CNH7anoqexMg49wwrEZSb3iZyXnN/DO18xn/71s/DhsMLqaKFU/KizLexvepdwWnNrNJ1jhX7qflbbmxVuGWll64nRZMOJlP7v0f7mdwpoA80vu9E+8tQDQwTismMxzK2lzi0MTpzTIghhkGMygUAR6nCuA9prOWbOQqAjWBmHXnIki1su5Pw8W3DXa3+gTRYGJ8asIE2s8uz9rA/6qZVAnNE7xFFbORqRSOn/XsLvFNBe+SB3QPLL2h8i+Wf3PXk3PZ9hmlvLvvnRynfXSqCjVm4u8nYlqtv6vG57EmrLJefva8OiFTV+riP4iV5EMA49IR/kdrsTzF2P3ZGZO73jI4Pl83Vs04k32q8Xt0d0Qi/2U6uTt7h3YZedP7OG3ykgQVrgab99xNs23NR3+XTRsrhbPu3vyr1aWbOCPsa2weR0W5/b7Ym6kdnqDc4VWsjDnl9x8w59i2Acul4+yG0yxhy22zl256DZ9XhVcKqvyfl6Kqzu1/4B0AKpBqbl8cedH5ubg2dc78LGCaTt0Imtt0oYADRK5wFVha0k7yzgMeAL7NQxZwX0ZGXdWXsVlP732ZgrxmNr4by6mbuasdN9bo+BsYXBiZNh/kH5U/6eYKENexv1pH7Wynnq50mA8srC4MS7fXbdkSHkjENX08qp83Yb+7FyaqNkW+7b71w2by9dtt8xr/njqLAKtCAszW9zKne5OXhi0yTHaSVdBtCnfPOksLBVv+bTRUvs7zAJakj+zq2NHkhWKy0MTszo+8JjnKxR5TIt7pbGvywMTmxNsahB21h9Hq4M62ife8bAZJ1Kp3E+69TC4MSctdKu1met0R9yxqHnEIxD19KCDfNuwYajhzZndoIp5y3nf9+j825Bh3kKOvQ2vbsoP5d0iX6q9A7rmLYh3IJ5Kum2pPU5vUByqJHjJBpjBahNA3GZKmyFurwrtuWm08LgxKK1iqrpiqpSdEeDIQdTSjWwHPHfdpsuaYEKe0XWdMI3u5at8001tYQUeFoYnFi2AmA+y2mlfrDGQK32JPVZO/Tca23DXdZCWATi0JMIxqGbnXYLNhw7tNnceMOqTF80OX/ph0d2vmo/vF77a7RzLcumhcGJab1jF04EF/UO9FwjQQMNOOy1txnohHmm0UCNLs+f1jYM6aTskrbjVK3j6LL/k56JubTr4MLgxOzo0pmZuBc3qc+J29/t4FZGddq4rJVDK/5hsDA4cVa3eZzTrbK+c13jXNfwfMNVdZO1KrJa7ZrVdkxaxwnHRsMVTbU9e60AWTjGZuu1pRlpjUmgl0XdsHz56EN9X9gKVXZocGSuTlBi3Aqk+f4/Ha7Civz/qwZjzul305Dnu/iSFaip1Ra7zd45igYQw9VRtf6fv1XbHW7hTLpS7EyD/Wsa6cNmX+/p83Cedy6c/+hze2uceyPtaqjtVnt884FL1kq+yL6Sa25d28h0HfJdvzA4cco5d2PNheZipgwBOuqqK1eucAU+n9RIEOO31kPnC6UigY0OyQc5qRT6hP3ps09PUJrf8tNfvmX2/sMZ9+HnCqXi7k62q19o5cez4elIBSf71DQAVi8/Rs3AxMLgxPE6yW5lklEzp1iNwIVNgi5V21E0EHiy1vHrtaNePyX4ObH7uxmSh8R6+XidgKb92kVP/paqgJv9nog+m27mTnjEMRr5gl/U86s5mW2gPSt8bTEpjpVekw9ysrJpxGr2XYVScaEdp6FFf+wk/88USkUKAfUYDcQtuDcsszRPeuPi++5NScZyh+n3tJ3DjBsnGRPeaNSz5vpjRT7IVcxJC6Wid66YNRRwQNfRimAVgTgpXEAgrpL0h6egwxPaf2i/6QYS1R60E87aGgjEiWkNgnhpcONCA9tNJt3j6ConO7hyToMy8uW41rkzOq2rrJqW4OfE6u8UuZ+/7CRhrqvBwFdSW1LCpNCRx2smEBdHWmMS6APzWQ7EobPke1aT59crJtDUdx96h8w/dQyEBRyGPAUcuP5AHQTj0FU0/0lVRTBK8/tJv0j/OE5oP6K97ECArMa6ToMGW61Eycue5MJhEM0OjslS+7VW0MHe0ng8nOw4xxhwVhAt61L/sB3D1kRo2UnebLT9YQCmvHIrXP0l2z11hdmw8/pWJPU5Lfd3h8xoG69rJpG0JyAlK9ckGfVV1vm2khsl3C4rx7hO22dXxvMGfXWcHbQekr4ejhircaU1JoGelQ9yEojbaLefG5ZI2Vn9Xjip1Syv6HzEDsTtIL9nXzupY+Bdvf4XrG3CRncqcP2BOgjGoWtY2y5WhBXBEE36R/rJsaD9ifaxVxIth9v8JPCiWxKHNcDm2/5nBz5ku93WcNKiQYetTpDDFyiZttpwST9rzmrHom7jW6vPuZMie9Lk3e6nuVHC1UgD9l3wJiT1OXH6O23l7bIttsW+1uEW0pWxoP893kJAbibMDyft0sCWvdIs6tra42xRA2SLpnKsJlWEIq0xCfQk3Wa8zW67BOK4YYkus6OZfKToO4mlDAH6HQUc0BWsQBwVwZok/SP99PDOV9wKqwtUWG0ru+T6Qd0yd86q+FgrWGIHEKImrLPW63zbM+3HIgM/vjuTupXTrgxWqzS9HQRrqvpawp8Tp7/TdC7mJLTudZXHpIhBg7nVwvdUjTNNwhyuwova3muP1ajzmmtgC3FNaY1JoFdpCgo73x87B9ApwxHFhTpaTAmpGrfGgF3AoZEiFwAUwTh0iyNu/pN9e+6mIliDpJ+kv5yCDuu1X8kh1x4zTmWnAQ1chBUfz/nKresW1RVRkxatIhb+1RcoGbNe2+wd6AHnvw/WeG0cSX5OS/3dAXHvBq9c61rbW+W5GsGqJNVtT0JtSWtMAj0nH+Q2+VJ4sHMAnaDBNhLzZ5jOtfqiiBLQSWxTRcflg9xud9vFrsfuIP9Jk6S/pN8c27R/kTDd6jesE1LfXeAxTYzfLyt3llvMVZbI5/RKf9equorEpTUmgY7RHLDz9ufLzgEJxLFzAACA3sXKOHSU3u09bLdh7M5Bs+vxqqASGiD99p/fuWzO/W7JfvHhfJArFUrF0/Rh8nRL4qwGgYY0KBRupxzQJPMrdw8lWGOvIpLteb7VXE5VUF/A4Vy4Ok7yZjVTJMATzPLllEtC4p/TbH/3oMVwNVqt65pirrS67UmoLWmNSaBnaCCuKoXHywTiAADoeayMQ8f47vaS/yS+iAqr81RYTdbC4MS0lnUvb6/TZPantGjCVuvDfCu16hVnME6lSN9qK/uxg2E7XBK0cp/TIIcd4GvLlsAkPydmf/cS+7ru9V1XfSytSqJ2e6LGatTjDUtrTAK9QnPpztuBOCGBOFJ4AADQ+wjGoSN8k0y523v00Gbu9sYk/Sf9KP1pWaUBOSqsJkBXrR23yrrvDbdH6nN2oMRXWMHO8SZBpoPW+yV4drKBIg9z1rHXaDumw+CNtEOT87+rz7lBKju3mSTLP2mvxtN2yHldWRiceDcq2NeA2J+TQH/3EvtaD+nW25WxoP99tkbBhaTZ42xMr587VmMVb7CkNSaBrmYVtarIpTv79ASBOAAA+gTBOHTKaXeSeezQZnPjDau4IAmQfpT+dKzXfkeyBqwg0RVjzAUnUFK1rU/zitlBl73W+991AnE7fNv1tMrmuPXQgAas/mK1w96+6RaOOOW0QT7zggY6wnaEq5PWtLrirA2f03R/9xJPYmw5t5NWf51MMRDna89kjbEa97NSGZNAD5j3BeLIpQsAQP8gGIfU5YOcVPgcsT9XJpm3b7iZi5Eg6U/pV8eI9r+X3I3XPH6oVLHaSnO8jUcUErDtqFGBckfEijfbXK1KqdqO4Qbaccp3HG1Dveqfy3oeLSfKj/s5SfR3C+xrnupqO82LVy/vXWpt0rGTSh6+tMYk0K3yQU4CcRvt5m25Zx2BOAAA+gzBOKQqH+SmjDFP2J/JJLN9pF+lfx1P6HWoYG2LeY2A3MrqtTCwU1XCX54fXTqzVoMUp6xA0aIG2dbWCqSZLwIPWz0FGuTvW/X5eu1c1HbMaDvCIE3YjuHRpTNba7x/RgN6c047FvWYNc/DWeUX2d4kPidufzcpvOZzDQR9Zpw/G1HzPXouazUwdc66rufC/tI/l6OO0WC7Gmq71Z45q+8v6d/t90b2VVpjBehV+SB3wK0uL9/h5NIFAKD/XHXlyhUu6+cToFFjzG+th84XSsXRDjap51jBnDcLpaIv2CMFBP7FfkwKDfzin6peioTd9+i8eXvpsnvQbxRKxTdNdX6a94wxtxZKxY+4DunRPFzyc4kqkuglC4MTZ61t0LMaTEOD8kFuwVktflehVFxoR/9psGe/9dAzhVLxANeq8/Qm2Qm7IcyRor1x8X3zyM5X7eczO5bzQW6vbuGfKZSK9VYWA4y9JuWD3LSmfgnThJRvBBdKxYZuDOaD3IC+fzqc6+sNRzlG3Z0O+SC3Rvt5TN97qtf6Ox/kKoJOhVLxqs61pnuwMg5JGtVgzjbdZrHCCvas+NpXrzUvHX2IC5AC6Wfpb8eCbku1A3EfG2M2hYE43wo6tIdWBz1HIA7damFwYswtnuEp4MCKNaBJuhq9KhDHHAkNCnNpUoUaaevrsSdBtHyQO6k5me18veXCYvKcBtpqHkMLbx20ct2GwbWzGmir9f41mh95zNqxczAf5I7HPkF0HME4JKZQKkpxgO16vJWAnBXsqaiceuzQFiqnpkT6WfrbU2H1/9afMBA3aq2Wk+t3wg2sAsisk57iGXYBhxmCyUBzdNdAxfesfFdLII45EgB01PE6haom9TVeViAuqvBWuUhXnYDeXi1etqNQKsrPsK7Mm64XyEP3IxiH2KQgQLiCqlAqznsCckfcqmD79txNef6USX9LvzvW6Y8vEBfmrWnLdikAfWVGC08AaFA+yAW+m5UvE4gDgI7KB7lJKxC3rMGwq3R75Q4rl+9kPsiNRbTV3toqrx/X9w9b7x/S10WR5y8VSkW7QFk434r6XPQIgnGIRXPtPaErqLwBOTcZ8a7H7qBgQ4dIv0v/e7wQEYjbrtcTAMYjCjgME4gDmqO7Bk7bgTghgThuVgJAx1Ws/Lfzw+l/2/lxq4JputrN3r4rgbhz+v5FnVOFDtZYHTdkbU8NPz/8OyvjetyXst4BiEeSTOeD3I81eCMBuXIwTn7yQU7G1wv2B4zdOWh2Pe4NBiElUw8OmxOvXDCf/n+f2R/4P+eD3OuSL45AHAAfrSpbt8IvgNqcXK0rZp+eIBCHWDSh/mS4mkb/ET/bYJL4cIXOmP4jf1kreM/pNrmTmnC+6ntAt8vttd57Sd8rnx0rfYGuOpr0HHtOgxpR7wu3GM7q+yb1PBpOnm8l3p+0Vjid0wT6sXOkttrnWlDguJ7bslUYYNm65nX7vcbnn9OXHI+65k2cY1v7sI1WVp1FtPOUtUXVt0LNDuZVjVX5ez7IzVmBvGlrxRsygpVxiE0rp/5Yj1NeIac5UP53+9h/e/WXzNNPVm2TRIo++fQz88jOV8qBuL/5m6oiNj8hEAcAQNtVpe+QQBy7BpCAg1bAIwyQvatBl0gaxLtgBXWMBoMmNefVSX3MtwJoyPPeNfp3+eyWk/vre89GHPuCtjvKtJ7DQeu/jZU8/0KtftHn3nX61GjgRZL313x/A+fWcp9bgZ69TmGAAatvam19rPf5x61AU83j1PmMtvWhjI18kDvr+Wm5vc1wArm+VW12gO6c53n38ah+WHTz1ukWWmPtVECPIhiHRLgBOWPMf7C3Xlx1lTH/+tl/Nd/57s/KASGkLwzEvb10uZyTZu7/uN8t6PBv9M//iUAcAADJc1JBlG25Zx2BOLTTgFZt9G6D06CMHTALV0c1+g/9k1YwInyvHaioFTCLpO2y33vJ066DTQRfLjltWxOVfF8DRGet81rUbYmz1ueHFTVrVtOMOH7cPne57x/QvvFuY2zD5/s+o619qMEu309SWzdXVrJZwS9T6zGH3Y5GgnFR7ZZ2rHE+L/y9iDouegTBOCTGCcjdZB/3h//rvysHfiQQJAEhAnLpswNxkpNm9H9YY44d2uxrx9Y+7woAAFKXD3K7fYG4Z78/wcVAUuwk8WutgMJAjbxWdsBLcmNdVygV5RhrNa9V5FZODfaEQQQJDKzV916ngZdwS2hTnHaFyfPXWu2y83XVyrcVmgvf7/TLUEQw76AVRCpXsCyUirL1c8b5/HrJ9319FqvPPRatfl9r9bf7Oe36/Cht60Pz+b87h8OCCs7PTANvb4Sdp+24vYJP/9sO5PqCmCuvj9oO7TwetTIu3IosbSivJtTXzsXdAo7OIxiHpH3kHu97e75ltv779eUAEAG5znjq789UBOLCnDRnF5Z87RmRCrl93ykAAKREi1wdtj/tlsHrCcQhaVutJPGXnCTxvoCHvX1TgiQVOav0WLVu0rrBhOkwaKGBl7Ut5huz2zXr5uzSdoZBF2+g0XLJboMGQOxzqsj3pe0PH6v6bM/nN7vyL26fu7baQR091zBI41u9Nen0bdzPr5JCHxrdnnrF89PytminfXNOMPuCbqu9oNt77QBw24Ji+ns8rMHu8HrOxMnjh+5BMA6J0YnmE+7x3n7ncvlPCQARkOscNxD301++ZeZ/8vl3zND6r7nteiKsjgsAAFqnledP2AeQQNxLRx+iV5GoMBAX0iBN+JhvG5y9GueU5/nwmN5ggx7fXokV5mL7i67i8SW2b0TddjmP18o7VtV2Z0WRu6rObvPeiIDPFWub50DUdtAIsfq8zrmE7O2qLvv8vKsWm/n8CO3uw7SMe/K6+caab7uovc01aov4gO/1LrnGhVJxq65gHHYDqOhdBOOQCC3YULGa6r/9t9eW//zZr94qr8wyTkDugw8/Nn/68GMuQArkzvsv/mmqIhC39x8+vyaSNPonc4+U/2HgOKHXFQAAtEC/R0/b75Q5kATirr3maroUnbYSDKiz5a3WczOeoE64Wu1siyuV6rarTkAtTctNbutMos/j6PTn+zTbh0a31bZzm2o52Kxbm3c4AbdTTnt9wTi7/6KC0vbjbDnNIIJxiM0q0b9SsEEmmr98aXs50GMiAnL2Ki203403fH557EDc1ANDK0mj5R8GX/vqtW47FvT6AgCAJuSDXOCbH71MIA7dYyWgUGdlUuRzGrDYobnYZjyBir0trJCr2y7n8SRynPmOdUpXR9X6WRuVE6ze8Vvt85jS+Px292GqZMuqHfzTc1opTFEoFX2r2uwAXSPBuMiVcehfX+LaIgGRE80w0CPBHwnIGV2lRRCu8yRp9L4n715ph1yvY4e2mId3vmI+/evK9uFVGpAbLZSKVfkAAQBANb2RddqeHwluRKLLLFp5X/Dx7wAAIABJREFUqCY1WXwFDaRFBmY0oLOsq6xmrcftip1jTVZ+rNsuJx9akoEMN4iyI+FAUew+74HPb3cfdoyneEPUSrxT1uskl+KcHbTT49i5DpsudILex8o4xKIl+tfbx9i35+6KiaYE5OwVcm9cfJ9O7yC5Hr/4xylv0mi5bnL9HOvdLchZIJNIzWnRUkn+bmWdl7ecP/ruOrd9/GpeoCsRFena/n6g21g7BirmRzIXIhCHLjNnrWI66H5naFDmZFST9fl35Sfh7xs7MCHfZxWFCJxA33KSgQwNKtp58M7alTTNF9+xF1o851h9noC2f34KfZgqye0m/aJbrs9aq+Lm3DyNVh8sO4G6s+EKUf3zrPXcTL8EK9EcVsahZb4S/fa2R1v42Cd//Vdz+4ab6fQOq/WPAblWksvv+Rdftx/elg9ybxZKxSwF5Q5af/ZTotTwvKY1Bwb6U5rjNwyiTbb4D6K47we6zRFfIM43PwI6SQIA+SA3a39naHBkUVdG1VsdFQZYBuq8t5lVcWG7ZrRdcuyT+SB3SfNqucduRyBjxqo6OqRFKcLPH3Jy1DX1HZtAn8eS4ue3rQ874KRnq+lijVVxoTntgyErKOm+ZpG5T3axMg4t0cpgFSX6x+4crNj26JJJ6PYHh+nwHrDr8TvK19NxOB/kNmW9bwBUCZMOk3wYmac7BipuVEpaCAJx6FZamdEOhgxo4KFuUKbB985ErR5q8thrIo6deCBDg3vjzvda+PlhEGm51Zuacfo8Cfr5diAp8c9vdx+mzO2XWa1qWjMIbPVB1DZqeXycVXHZRTAOTfNVBpNKnL5tj+hd5dx+1RVW56mwCsAhE82tDdwhBvqab8eABOKYH6HNwv/31spdZWqtvtEKlOP6mjBwsGwl39+qf69awaTvXavPVb1XAz8tcdpl3/iRvw/XOfZcnS2s4eOnfE9qfq9h7Vc7mBiuiFobkbi/IXH63GpznGs+q+dn9234+Tusraz1KulGtqPdfZiicI4Ttrnh+Y4VkJtxxvAMgThcdeXKlcx3gvlipddvrYfOF0rF0Q42qSv58qCEBRvIg9J/PvjwY3Pfo/N2QQfxB2NM3xd0kBxW4X9r5aS+0K/nhUq9dJ2ttp6TamUdbk7q8kFOvlNHrM+9q1AqLrSjHfkgd8AYs9966JlCqXigu3qkN+WD3JQx5oTdeLmh9RKVU9tC8g8/svNV+9CMZSAhTk6+Oa2WC7TMnpca/g2ygpxxaFZVwYZjhzYTiOtTN96wqnx9nQnveh0HmdmyqpOSMOfDJb1rONvI3SyrWlK4/H9Z7w7OhXlQoiY6WqFsr/XeS/reWU2O28w5HHeqNoVfjDPunWV97UCz1a8kwa1WjlquN3HT5LWTnnObi3uXVNsxbV0zo8c+1eh2Fm3ftLWdImzfKX1sr/ZP1fGsvq71/KQ+770jH2fcxNHKmNPCC5M6lrzXrk5/NnI9Wr6mSf4eARFjbJRAHIBeo9/NQ3ozbFG/L6f1OzPUT3mTga7CNlU0LB/kJCHxRvv139vzLQoy9Dm5vnKdHRt1PGTFQSsAEP7D/l23MpRLg3gXdGIT5psY0IDCWataVVUVST22+95wkvSuVnRqRlSlSl8VrTDo0Wx1y5X3hRWjIvolrEblO7dYlbW03951rpnRQMxxrdwVed20YtZxbd+kldckbN9Zq88mIw4z3cDzA1H9G2fcxBFjzB3X/q16vsH+rCnONW3D7xHgjrGq1B2yY+Dooc0E4gB0u5P63XpBb9C+68wLZ7hpBbQPwTg0RLdfPGG/VvKgUJAhG+Q6y/V2PKHjIqvCqkgDvvN3lvgba2VTo5Oak06C23NW/g7jBtEasMNTzeycJ8/HovU53s+IOmfr9ctRyWq1X+zjXvL0y0FdbdUUDbzYJefDnCSz1vGHNIATdQ4HnSDXJU/ft00C4yaOpMecidufCVzTdpwTEI7PQFN3rAofC1N3yMpyAOhyUXOLZd/OCQDJIhiHuvSub8UqKAo2ZE9EQYcjGSnosKxJVq/SJMVhoMm7ukmDAu6dxeskH1ahVFyriVwjgxG6TSBcxXNOk8XKe6+zEsA2VT1MtvK5+bj0mHPOY3ay4wE3KKYrif7irijS14VBj1O+7a1OvyzrNs21Vr/YgcGDNQJmUQ5abdihla5kK+KMc/yhiOs2Zj3utu+6dhcoiDtuYn524mPO05/jLfRny9e0HecEWOPrK7oiriLqRuoOAD1kXG/WzlmpI2YaKI4BIAEE41CTVbCh4q6v5EFB9sh1l+tvkXGxoOOkn20Ny/Lrcn07qOVbwWUHpqruLOqxttboLzvgMqTbPof0vbMa0GhnMl07QLESHLJyb5Uf179Xva5GfhG7X2Y9gUC71H7kNk4f7Z9wa2zVsT3H962Isj8vqn3tnJzGHTdxtGPM2f258jtknc9srYBcAte0079H6FO+YlZi9ukJUncA6Bly41Rv1u7Qm1Vb9fuRralACgjGoR7v9gvyoGSTXPeXIwJy/dwhniDCsrXlc43nLXb+qqiS+ZFbD93VaVY+D1mRdrxWPrYk6CRs5fysz3ODY+WcaPr8ygqkGpO4uv3iPF4zJ5/D7hMJFF7x/VhbQAecYKKxjnGpxh3hdq6kijVu4mjTmLP7090iXfM8nfebVq5pp3+P0NeOuIE4ya16/71V6RwAAAC8CMYhUj7IVVVO3bfnbrZfZJxcfxkHjvU6XvC5le2Vde4u1npuxhP4CVeLnU0h8bz92dPOn6G9nsdrBavq9ovzeLPbVJux7NnyGX5e5HVp893iJMZNHEmPubT703dNO/17hD6j33Xb7LMihy4AAGgWwTh45YPcbneyOfXAEHd9USbjQMaDY5uOG1gBAc/qK1vkc7p1YIfmqJvRFUQViefbubKnUCqesoIok1pYwA2ODejjYdXQS/q+KHX7xXm8mfxo9mtP6VbiWj9rPXntwr9HXpc61zOu2OMmjjaMubj9Gfuadvr3CP3FNzeSQBw5dAEAQLO+RI/BlQ9yo8aYw/bDY3cOmn1PVq2GQobJePjgw0/Mud8t2Z1wOB/k3iyUin29bbUBi1aAatKXZ8zZ2llFgxTLunJo1nqfXW1zzFMhNUlz1mfZK4jGtcKl+3i9LZx1+8V63kRVZI1g98OYJvtvttjBKV0xJVtzp305yhrMY7esgcuq61sn2Bh73MTRhjFn9+dkRKC2Vn/GvqZd8nuEPqDVwyvmRlLUyLNSHAAAoC5WxqGCVsY8bT9G5VREiaiwejojFVZrmbMCLQf1H/4rNKByMur9+vy78uO+t4PnETqn+b/c4MVyA8G4isIQEqCxn3QCJI0cb4UGW+z8YGfDZP328fNB7kKNPrWDRQcj2tfI9QiPI0Go49b7B5zr7vZhrHETR5vGnN2fxz2VeWv2Z9xr2kW/R+hxepPyhH0W8t33Ejl0AQBAi1gZhxVaHWzeLdggARcmm/CRcSHj4+Gdr5hP//pZ+AoZP/Pyj5dCqfhRFjtOVu/kg9ysvapMgwGLuqqp3sqmMOAwUOe9razmCVdtye/8Wa1y6V1tpOdxKiIn3JyTYP9UvVVLerwZ7ZdyYCof5C7pdlj33GZaWNk2oyvKBrQPL1jHH3K22VatOpMgYz7IzVlVTU/WeH8ts1Y7pjUo5B5j0VOtNe64iSPxMefpz+N63Gb6M841befvETLCd5NS5kZHD21mbgQAAFrGyjjYqgo2HDu0mYINqEnGh4wTx3odT5ml1Tjt4MCABq/qBlQafO9MjQqVtdgBoLEGKpbar1/JCefklHNf18y5rYk4t6arlmrwbtxpV3j8MGgjr9lR4xg7nHNx399IOy5pEMnOmWYfQwJCWyPe2/K4iaNdYy5uf8a5pm3+PUIG6E1Kb1X5G29YxRAAAAAtIxiHsnyQkzL9G+3ekDL9t2+4mQ5CXTJOZLw4Nuq46lUz2u6ZiPaHW/Aig0aFUnFGAwlzVv6zZSsZ/Vb9u2+V1owmnZ/1vVcDDa2wAxSL9fKyFUrFResc3c8M/z6nr2uI0y9hkCXckjgc49zC9g7rdbODLIv62Np6bdUAUlT71jbYjjlth731NGzDeK0qonHGjaXe+I363FbGXDg+vMU7nP4Mj7to9edMrW3Jca5pG3+P0Od8gTjDTUoAAJCQq65cuUJffpEP5LfWQ+cLpeJoB5uUGk1KXJELhepgaMVTf3/G/OxXb7nv3F4oFTO9Sg79JR/kwi9OyZ83zuVFHPkgJwGfEesQd7WrCE4+yB0wxuy3HnqmUCoe4AJWk2JE7m6B2acnqCrfJd64+L55ZOerdmMYywDQpay5c1mhVLyKa8XKuMzTXCgVq5co2IBWRRR0OEJBBwBAr8gHuaq0HbL6m0AcAABICsG4DIvKhSLVwYBWyfiRcWSR8bWg4w0AgK6lgbhtdvtkt8D2B4e5aAAAIDEE47LNm5SY6mCIQ8bPyxEBOToWANCtNG1HVSCO3QIAACBpBOMyyrcFY9+eu0lKjETIOJLx5Fiv4w7odSuFK7iSQH/w5c+VtAue7zIAAIDYCMZlUD7I7Xbv/E49MEQuFCRKxpOMK8c2HX9Az5IKnZJ4tlAqequHAugtmte0KhD3ErsFAABAmxCMyxitGnvYPuuxOwfNvie584vkybiS8eU4rOMQAICO0kBcRRoFSbNw9NBmAnEAAKBtCMZlSD7IBcaY0/YZUzkV7RZRYfU0FVYBAJ0UVchK8p7eeMMqrg0AAGgbgnEZoRPO0+6EUwIl3PlFO8n4knHmKegwT4VVAEAn+AJx4tihzeTPBQAAbUcwLjuqCjaUVywx4UQKZJzJP3Ac63VcAgCQtgV3XjT79IS5fcPNXAgAANB2BOMyIB/kDhhjNtpn+r093zLjI1W5vIC2kX/gyLhzbMwHuSP0OgAgLb6K8vL9RCErAACQFoJxfU5L9e+3z3LLPevM9geHs9416AAZdzL+HE/oOAUAoK00EFdRUZ55EQAASBvBuD6mCfIrVh1JIv19e6icis6JKOhwhIIOAIB20hs/FYE4qfhNISsAAJA2gnF9Kqpgw0tHH6JgAzpOxqGnoMMCBR0AAO2ggbgT9qGpKA8AADqFYFz/ksTEq+2ze5lAHLqEjMOXIwJyXCMAQJJ05XVVII4blAAAoFMIxvUhX2JiqRBG5VR0ExmPni3T63X8AgAQmwbiKm70yI0gWRFHIA4AAHQKwbg+48uHMvXAEBXC0JVkXMr4dGzLB7ndXDEAQBya+mDBTdkhK7O5QQkAADqJYFwfyQe5UXcbxm0bbjL7nqRgA7qXjE9JoO04rOMZAICm+QJxJiwiRCAOAAB0GMG4PpEPcoEWbFgh+VCOPbsl612DHhBRYfU0FVYBAC1a8KXsGB+puvkDAACQOoJxfSCqcir5UNArZJzKePUUdJinwioAoBm+3Lm7HruDlB0AAKBrEIzrD1WTTrZhoNfIeD12aLPb6vU6vgEAqEsDcRW5c7fcs87sevwOOg8AAHQNgnE9Lh/kDhhjNtpn8b0932IbBnrS7RtuLo9fx0Yd5wAARPIVsZKcpHKDEgAAoJsQjOthOuncb5+B3P3d/uBw1rsGPUzGr4xjx34d7wAAVNHviIoiVpKLlEAcAADoRgTjepQmtj9it14mnfv2UDkVvU/GsaegwxEKOgAAXPrdUBWIe+noQ+TOBQAAXYlgXA+KKtjApBP9QsaxjGdPQYfTFHQAAIQ0ELdgdwhFrAAAQLcjGNebZNK52m75ywTi0GdkPMu4dqx2/9EFAMgmvTmz4N6clO8OilgBAIBuRjCux/jK9c8+TeVU9CcZ1zK+Hev19wAAkFG+QJyhmjwAAOgRBON6iK9K2NQDQ+b+e6uS3QN9Q8a3jHPHNgo6AECmnfbdnKSaPAAA6AUE43pEPsiNusmJb9twk9n3JAUb0P9knMt4d5zQ3wsAQIbo6ugR+4x3PXYHNycBAEDPIBjXA/JBLtA7wCukStixZ7dkvWuQITLePRVWT+vvBwAgA/JB7oi7S2DLPevMrsfv4PIDAICeQTCuy0VVTqVKGLJGxruMeyqsAkA2aXqCJ+yTH7tzsPzdAAAA0EsIxnW/qoINJCdGVsm49/yja73+ngAA+pQG4irSdchqaQJxAACgFxGM62L5IHfAGLPRbuH39nyL5MTINBn/8nvg2Ki/LwCAPpMPcrcaY47YZyWBuJeOPsQuAQAA0JMIxnUpvQO8326d5ETZ/uBw1rsGKP8eyO+DYz8VVgGgv2ggboF0HQAAoJ8QjOtCUXeA9+2hcioQkt8HT0GHI/r7AwDocVF5c18++hDpOgAAQE8jGNdloiaebMUAKsnvg/xeUNABAPqP/n9cVsSttk+OvLkAAKAffImr2HWqJp6f/vUzs2Hsuaz3C9Co1fp7xAo5AOhdp90CVmLnU69xSQEAQM9jZVwXyQe5qsqpAFqyXn+fAAC9OR8a6YKmAAAAtAXBuC6hiee3Zb0fgARto6ADAPSWfJA7wnwIAAD0O7apdoF8kAuMMRI0OJ/1vgASNpUPcguFUrFExwJAd9MCPLcyH0IL+J4HAPQUgnFdQAMFo1nvBwAAkF2FUvFN5kMAACAL2KYKAAAAAAAApIRgHAAAAAAAAJASgnEAAAAAAABASgjGAQAAAAAAACkhGAcAAAAAAACkhGAcAAAAAAAAkBKCcQAAAAAAAEBKCMYBAPD/t3d3MXJVZ8Kod44ifTfnCzEXKFF+qLbbkfhERA62kiMlCp7EvnGQgCAconNBIwU7c2ObSBNbSiYwUUayHWmc5MaxZyR8FBjNYCUQwceNnaGJFGkYucFoIiHFbXdBiIi4iDHk4nDF0aqs3Vm9etdfV9Xu+nkeyQKqq3atvXaZWv3ud70vAABATQTjAAAAAKAmgnEAAAAAUBPBOAAAAACoiWAcAAAAANREMA4AAAAAaiIYBwAAAAA1EYwDAAAAgJoIxgEAAABATQTjAAAAAKAmgnEAAAAAUBPBOAAAAACoiWAcAAAAANREMA4AAAAAaiIYBwAAAAA1EYwDAAAAgJoIxgEAAABATQTjAAAAAKAmgnEAAAAAUBPBOAAAAACoiWAcAAAAANREMA4AAAAAaiIYBwAAAAA1EYwDAAAAgJoIxgEAAABATQTjAAAAAKAmgnEAAAAAUBPBOAAAAACoiWAcAAAAANREMA4AAAAAaiIYBwAAAAA1EYwDAAAAgJoIxgEAAABATQTjAAAAAKAmgnEAAAAAUBPBOAAAAACoiWAcAAAAANREMA4AAAAAaiIYBwAAAAA1EYwDAAAAgJoIxgEAAABATQTjAAAAAKAmgnEAAAAAUBPBOAAAAACoiWAcAAAAANREMA4AAAAAaiIYBwAAAAA1EYwDAAAAgJoIxgEAAABATQTjAAAAAKAmgnEAAAAAUBPBOAAAAACoiWAcAAAAANREMI5azTfmfjTfmFsw6wAAAMAs+qCrTl3mG3ONoigOFX/597uLolhYbq687QIAAAAAs0JmHHV6NHmvu4qiuDTfmPuMKwAAAADMCsE4ahGz4h7I3uvmoihenm/MPeoqAAAAALNAMI66dKoT98h8Y24xBuwAAIANCDe55xtzh80dwHgTjGPk5htzHy6KYs2i4H/+n/8jf9s74rbVu10RAADoXbipPd+YuxRuchdFsWjqAMabYBx1CIG4G8r3+eztnyieeXyhuGX7Tflbh+c8Nd+YOxsDeAAAQAcxEy4E4m4riuK15ebKJfMFMN4E4xipqqy4Qw99vvj4R29oBeQOfuPzVW8fasstau4AAADVYjZcyII7mdz4ftp0AYw/wThGbSHPivvc7Z9cfcuDD32+eOLU/VXbVm+LzR3UvAAAgESSDXdHNi+CcQATQDCOUVsTTLv3K59e93YhOPfC098sdn9xe9VQTsbmDratAgAw08KauCIbrnR9ubmiXhzABBCMY2TmG3MhK+7m8vgf+8iHinvvvLXy7T70P/9H8dMf3lN85+EvtWvu0NTcAQCAWRXXws2KbLiSrDiACSEYxyg9mh774ENf6PpWD96/s/jXU1/v1NzhR64YAACzImbDhUDbUxXZcClZcQATQjCOkegnKy53y6duajV3WPjajqofHwpt2zV3AABg2iXZcHf1cKoy4wAmhGAco9J3Vlzuu9/6cnHqxD3tmjssau4AAMA06pQNF25yH/zG5/Oz/uVyc+VtHwaAySAYx9DNN+Z2pVlxIZi2547K5gxdhdeF5g6hC2vmhtjc4WnNHQAAmBZxLX2pKhsu7Bx55vEHi3fe/f/yH9miCjBBBOMYhTVZcaEOXGjQsFHhtaGOXGjuUCEsUi7FRQsAAEykmA0X6iM/n97YLuLN7bBjJOwcCWvj8y9czk/RFlWACSIYx1DFoNhqh6ewcFi4f+dQ3iIE9Z752UIrNT8TFivPzzfmHu12DAAAGDdJNtyhfGi7v/iXnSLlTpNXf/dW8Yc/vpM+5ZXl5krTRQWYHIJxDNtQs+Jyf2nu8GDx1a9UNoN4JDZ3aLiqAACMu16y4X76w3vWrKf/86XX87OSFQcwYQTjGJrY4XQkWXGpsBg58b29nZo7XIrdXAEAYCzFtfNiL9lwqV88+9v8IcE4gAkjGMcwreluGhYPw8yKy4XjP/P4QrvmDo/NN+bOau4AAMC4ieVVXo43kleFG82hTnKeDVd6483rxauX30ofem25uXLJBQaYLIJxDEXcGvpAeqyDD61ruT50H//oDa3mDhXt3Ys4nkvxriMAAGyqsC4NZVVCeZV8HOEGc7jR/GCHnSUvLv0+f0gXVYAJJBjHsKypFRdquoVAWV1C4O+JU/e3a+7wsuYOAABspm7ZcOEGc7f1sy6qANNBMI6BbVZWXO5zt3+y1dwh1NioEJo7LNq2CgBAncJaOaxDN5oNl7rw6zXBuOvLzRXBOIAJJBjHMGxqVlwq1NYINTaO//3equYOoblEc74xd/emDA4AgJky35gLNZUvpU3OSqHMSi/ZcKWKrDhbVAEmlGAcA4mZZmuCW/feeeumT2oYQ1jc3LL9pvxHYbXzVGghL0sOAIBRSLLhTsb156qwPn3mZwt97ySxRRVgegjGMajD6QIjpNqH7aLj4JZP3dRK+1/42o6q0YQW8ouaOwAAMEzdsuHC+jSsU/slGAcwPQTj2LCYWXY4ff2hTagV1813v/XlVnOHim2rt8XmDof7PigAACTC2ni+Mff0MLPhSq/+7q3i3T+/lz70ynJz5W3zDzCZBOMYxNhmxeXCuF54+pvtmjucDAsn21YBANiIWJO4WRTFXfnLwy6NjWbDlX7+7H/nD511oQAml2Acgxj7rLhU2dwhtI6vcFds7rBrTIYLAMCYS7Lhnsqz4T72kQ+1dmeEXRqDevGl3+dHsEUVYIIJxrEh8425hXTBERYb45oVlwut48M2gTbNHZ4PzR02fZAAAIy17tlwDw5lffzGm9eLVy+/lT702nJzpenTATC5BOPYqEfT1x186AsTNZFhm8ATp77etrnDfGPukuYOAADkYjbc2W7ZcGFXxjBo3AAwfQTj6FvMiru5fF1YdNx7560TN5FhgRQWSqdO3NOuucNiPFcAAChiSZPQKfWBfDa++pVbh5YNl6oIxqkXBzDhBOPYiInOisvtuWN7q7lDaECRCXc6H9PcAQBgtsVsuFDK5Pn0pnQQbuqGm7snvrd3aNlwpXfefa/4r7X14q4vN1cuzfr1AJh0gnH0ZVqy4nJh4fSvp75eHPxGZROKUAfkkuYOAACzJ8mGO5SffOjUH27qhpu7o2CLKsB0EoyjX2u2bd5756enagIPPvT5VnOHEGTM3BybOzza7RgAAEyHbtlwoVP/sLPhUoJxANNJMI6exbuCd5TPD4uQhft3Tt0EhuYOod5HqPtR4ZH5xlyoJdfY7HECADAaoZFXaOi1GdlwqRdfej1/aNElB5h8gnH0Y01W2IP37xzpncDNFM4r1P04/vd7q5o73BG3rd7t0wMAMF3iToiXY0OvVWFN+J2HvzTybLhSyIp798/vpQ/9crm58raPG8DkE4yjJ7OSFZcL9fCeeXyhuGX7TfmPQnOHp0Jbe80dAAAmX5IN90h+MqHRV1gTPljj+vfFpXVZcbaoAkwJwTh6dTh93jRnxeU+/tEbWouvNs0dHohZcp/Z1EECALBh3bLhQqOvsCasU0W9OFtUAaaEYBxdxfpod6XP++oUdFDtV2ju8MSp+9s1d3h5vjF3eOA3AQCgNmGdG+oBj0s2XOnV371V/OGP76QPvbLcXGnWPhAARkIwjl6sqRUXGhvUfWdwXHzu9k+2mjuEwr0VTsbmDratAgCMuXgj9VJaiqUUdkRsRjZcSRdVgOkmGEdHMSvugfQ5IUNsloXtuaFwb9iy0Ka5Q1NzBwCA8ZRkw52MdYBXhTrBz/xsYdPXu4JxANPtg64vXciKayNsWfi/b/9k8e3vP1e8evmt9Ellc4cfLzdXbF2dAovb995XFMXuoih2xD/BhaIoloqiOLPr8nNXZ32OAGASxGy4R/MgXBGz4cbhpvMbb17P15avLTdXLm3eiAAYNsE42pIV190tn7qpVUvkB//0q+Lsvy/lzz8Uu9AuWEBNpsXte0Pg7VgMxOV2xz9HFrfvPVMUxfFJCMotbt97uiiK/UVRHNh1+bkzYzCkTbW4fe+WkICQBFn7EQKxBzYy/sXte4/Ez9bRXZefOz7xE9mjxe17w2fv9CBzB7ARsYzI2bwOchGz4U58b29rXTcOXlz6fT4KWXEAU8Y2VTpZSH8WitjKiqv23W99uTh14p6qbauhI9ei5g6TZ3H73q0xSFMViMuFAMPFmEE3tha3790dx1rEQBBrsx37tX+A+TuW/XNWnI7nuT8GuwFGLpYPaVYF4ha+tqN1Y3VcAnGFLqoAM0Ewjkrx7uGaANIhWXEd7blje/HC099sBS0zN8TmDk9r7jBRQtBgSxykr+khAAAgAElEQVTwtZDBVBTFtl2Xn/tA+BMuecjuSU5oy4DBmbptGa/hbJqleH034sIAg76W/XMW+QwCIxXWXWH9FcqH5NtSQ3f80CU/3FAdJ++8+15x4ddrgnHXl5srMuMApoxtqrRzOF20hABT6CRKZ6G5Q+i89di/XSz+8eR/5M+9q2zusNxccYdzjMWMnTIjLgRL9uy6/Nyafci7Lj8XAjEX4hbV0zG76tysz92k2XX5uXB9b4xZg6kdWfbgnuzn1/LPRJ8OxODtzG8VBhiFmA13tqo2XMiGO/jQF1rrtnHz4kuv5yMSiAOYQoJxrCMrbnBdmjs8P9+Y+4fl5sqjI3p7Brc1OcK5TkGX+LOd5nyyxeDqqsXte9ecT/7zQe26/Nw5wVuA4Yvr2B/ldY+LmA134pG9Y32D2RZVgNkgGEeVBVlxgwu1R5449fXiByd/Vfzif/82P94j8Y5tyJJrTuDpTbt06+DW2ZyCNV1kt8Y5WYrByU1pVDFu4xlUyMYbdpBv2kzbNQdGKzbOCtlwN+dvtPuL21tNGsYxGy5VEYyTGQcwhQTjqLImK+7er3zaJG1QWPCFhV+oJxey5N7983vpgUJzh0uhucNyc+XsJJ3XDEgz4XYvbt/7ZOx6OVAAIHbu3B+DCztizayrsfbYuW6BmdhUIn19UQYn4p/7htGhM27TfbIiENk6/uL2vaFz7NEuxyi7hR6PQZT7kjGX59vTFs1hjGeU8s6osWNoGUS6FjvXrsmCW9y+93z8bF3Ydfm5fAts+rxwzkeSgFT5eTney/Ue8nUoP3/pNu6leJwzw/r8FRNwzYHxErPhwo6DQ/nAQnOtci027sIW1Wyt+MJyc+VtHzeA6aOBA2vMN+YW0ruJIZ3/3jtvNUkDCgvA0KmrTXOHxzR3GC+xjlj6i34IAFwJQbkQ3KioL9ZVDC5cjMGK3Unx+jLAcT4G/SrFAM+VGJhJu1CWtc0uDqNDZ8xEutglIzDMwekOP0/HUAaD0jGH8z+9uH3vxRigrGM8o7Q67+GcYg3B8jPSrrHH7uyfVedeXvP9yfmXn5der/ewrkP5nkeyDsM74mNXhtUhdkKuOTAmYjbcpapAXMiGC821JiEQV7QWArLiAGaFYBy5NXXMQnFbhuPjH72h1dzh4Dcq6+/dFbPkPmO6x0PM7Mmze8rMnxA4ez8G57p2UI3Bu27Bhdbxq44XH+sWeBi4M2XMfErf50JsXhG6x27LApT7Y9bVIHbEuawc+yaMZxh2ZMe4tpEmDT1c82F2Iu12HfZn3YVHZkKvObBJ5htzoTbc8/m21JANd+rEPcVPf3jP2G9LTY3bFtXw//9w4yPetHk//rnS6/oHgPYE41glK64eBx/6fPHMzxZa85sJc//yfGNOY4cxEbfB7elQaP++mFl0pV22XAxwpBlv12InzRtjgGFnEqy5FoMP6evz4ETYFrgvvDa+fl+2rXYQR5KAS2v7ZLl1NmzRjQHKtFlFr4GQcqtmGO+NMaBS1uXb0SZzrBjheOpwNF7jG/Mtqt1UXPPw+m1JQGqjjR/6vg7x85tmuo3y81dM+DUHahJuXs435iqz4cIuhEnKhiu98eb14g9/fCd96JXNqiscMpTD2iZ+F+3PbjRtzdY/9/V4zP0xmDeUrOZ4vD/FMcxsfd8ifldnAdN+/mz4esTdIu/P2o2xYX+WmV2CcaRkxdUkNHd45vEHW9snKoTmDovzjbnG9M/E+AuBgF2Xn9sXgyAHYuAsDz5sjZlFVUGl/Ulw4WoMqpyJW2Fb3Vh3XX7uQDz+toq6dOkxl2KW0GowJv77niEFRNIF9YGqJ8TusWV20pYeF+FHy7pk4bxjQCXfBlzneEatVTOtvMYbkF7z1uev/FzEgNS+PGjbo41ch/zzO8rPXz6GSbrmQE3iTcuXY+3dVSEb7jsPf6m1C2GSsuFK49JFdXH73mNtanZWCc95Mr6mm/I5+2PpjkEdi99PWzusI2bFjorM/F4NkuE4lPIUE6gMwg3rs8yM0sCBllhvYzUrLixoJu2O4qQJC8WwfeLnz/621XE1K9h7R9y2urDcXFEvZAzEYMjqdsN4F/a+rJ7X6ViQPw2opRlzbQM0HZpDdH19eCwUtM8y8PoSFxNl0OVa3DLb7hDpdsWui/WqBgHhseSO4rqFzCjHM2IXBm1ekF3zdltczxQd6s1V2ch1yH7BOTqqz18x2dccqEEs5XE2D8IVMRsuNGkIJUEm1S+eXdd5v/bmXjGolmc5lY2iypsuO7JmQEWs43mty/ffljb/vlEjL50wQZbi9+ZG5mSQru7le2705uM08DlkwwTjKK3Jinvw/p0TeVdxEoWtwJ/b8Ynib//uqeLVy2+lZxBWlE/NN+Z+HK6PblrjJQbPQufMEOA4nyxK92fZRqsBk167VmZWF7udtjuGn3UIXPQiXyRv9l3OcRtPrwYNxBW9XPMhXO+hjWWI45nUaw6MWOg8XxTFyfxdws3jUP4jrFsn2TvvvpevAa8vN1cu1XlKsdxGGoir7AZedvSOWclpPdHQxGipW2d4hi/eKLuxomTKjuy7NO/efi1mm2/Ugbju3cj6FmaeYBxlVtwd5UyEhc3ChC9qJk24kxu6rf7gn35VnP33dd+JoR7KrpglV+vCjO5iVtDRGJArBtgmMImuDble2KA2fTx+CanduH0GgSGKJTvOpuvU0i3bbypO/fCeic6GK41J44a0/tW1WJag7f9f402Yq3H9UwbkjgyYacUA8jVIfpNs2GuUGKjdaB1bmHmCcRSy4sbHd7/15WLPru3FN//uqXzb6m2xucPDy82VH834NI1c3C63O2457OUX/U7b5C6U2XHhLnK/xfxjoGFHt9cPoW5Wvk22qn5dncZtPHXqes1rrJNW1+evmPFrDmRiNtyjcafAGqEzfciImxabHYyL/w9P1zLHe1n/hOfEMgVl9tXukJ3VT9AnyeZa6rXWakUG2NbQxGCAWq21iPO8O851eTPp3CR/1/V7vWfRNF53hkMwbsbF+huy4sbI527/ZKsL2Le//1xx4dfrFmcn5xtzdxdFcbdtqyO1Wrg4ZL11qoESu02m2zryBcmFZKvqsVhTbt1iMdagu1bxswtJtt2RqtdXjKFvYUEQtpck73UsdsrcFOM2nppdyLY9VwXABim43I9aPn+Faw5E3bLhQm240Ahrmrz40utrzmYT6gWnWf1X+6l9Gp4bG1iVwbzdPWTH7YgBijXfZfE74Gin4M7i9r3nK2qm7o91Rtdl88VOn8fK5kptjtn1OfF5+2O9vNUAYjzXM50CK/Emb1VTjPvi2vB47OC/afI5yM61cstyeS3i2iDfAps+b2tcJ5QBqavldudyDnq8PsfLmrLJZ/ZCDGz1tFU2jqXsELzuOvYynl5NwnVnc+mmyuF0BkLTBllxm69s7hC6goUAaSYsTptxezGjkS6ojsW2+UfS1vnhCzYuDq4kX7LXKupmnEkK24bnXYkt0bckxzkdj1PVnj893o7YtXU1Cyn++/khbY9NFx1hUftk2iUqjC1pY3+lPIcRGrfx1CW95rvT846flyf7bd4wgPTzO+rPXzHD1xz4SyBuITSwqgrEhWy4UNJj2gJxISsu2w3xy00YRvr/8I1sO0xf08v3wbE2N5XK75nTFT8rtfv+29LmZ710/Oz4nPBdEwNPp7P32BGDTFfimrDqteF78mKXXRRHupxzHVbnYHH73ovZuW5pc712Z/+sOv/9cY2bBmzLgNjFPq9PGZRLP2O7YwO1i93WBHEsF5PAYGn1Og6rQ+wEXXc2kWDcDIt3Hh9IZ2CaUv6nQdgyHFr0hzvBmbBl4/n5xpwtq6NxILuruzV+KV+JQYD3kwVE2v1xT541FP87vVu4JS5w/pQcZ3/ys93Z669mDSFad9mScTw5rEBIvOOZBoJaC4nkvdJFytZRd7Ect/HUpeKar553/LzUtUW11s9fMcPXHGbdfGPuw/ONuZAN9li+LTWsgZ752cLUrlHHpF5cuvbYyJbD9DXDuFm0v0OQ4kCb7p1XR9hIYH8P53UsvXlU/DULKz2PC3Gt+IFQiiH7ft3fLqC3CfLv9aqbzV3F4FenYNMwb6iVgdzKYyZjGflNvAm+7tRMMG62rakV99Wv3DoVRXCnTbgD/MSprxcLX6v8fffQfGPuUtxuzJCEAERMtz9QUceqylKnQsfx8Z09HKsyzT6myR/o8tqh1EnZdfm5Az10BC23K4y8cP4mjudam3+vRQ/XvLYxxc9ku19+RvF+Y/UZBEYrlt9oFkVxV/5GYe0T1kDTlg2XenHp9fyhzQjGbYby/+MfiEGKPVlDnv0VteFa30m7Lj93Y/Zw2FK4bYQ149JgSfh+ujGOeV8SiLxWsc47kgR/Wls5yy24ca15PK4Pq95nHByN53pjvzWPKwJS52It2DIgtdHGD6ufmzC2OMY0g39dBl8M0KWZbuFzti/57O0bcjOoSb/u1EQwbkbJipssYdtqaO5w6sQ9VdtWQ3OHxbi1gyGKC75tMRBxJltklXdgw5f5zm5BgfDzeKyjcQFSLhyW4nHCMdrWx4oBkW1xEXghef2FeMxtyYKksv5EXAiUwb62gZ5Yv2JnfG56Xkvle/VQm+No9s+NPmdY4+lLvJ7lMbvV8+jpPPp9TXbNy/Ne/bx0u959jK3XsexMPn+lpfjYgeyxdsrnnelUE2gzrjlQryQb7qk8G+5jH/lQ8cSp+1trn2kun/Lq794q/vDHd9KHXpmRmsDX4rpn9f/j4TshrKfygNzmDG+dNJtqtb5vCFDFm7c74/dSHgxMM9kr111xvVF+/26psUFTN62aaQMEONNrF67tvrKuXgxI7dtgFubR8nMTxhYDW/lugqqxlNfwaryBvhoMjP+eB4MHMcnXnRpp4DC7ZMVNoFDTLzR3+Oa3f1H810u/T08gXLzH4t3lBc0dhmuYv/QPUgy2Ystg7ni3jKKYddQty65cJHR9XofX9zKWrs8Z1ng2oo+56vk8+n1Nl2s+lDkedCzxjvP55KFOQbYzvW512YxrDtQjrlfOVnVKDdlwBx/6wkzUMP75s/+dP3R2c0ayptlULw0Ycv1ucz3eoeHB0eQ7ZVwCFGeS4NKxuK3wQtIVc10QJ25ZTUuZhDqo7Y6fBvvGofzChUGbF2SfiXbf+2f63dbcZgfJmWRbc9VWovRzdLQqwBgei52Bn+xnPLkJv+7UTDBuBoU7kaEbZ3rm995566xPy8QIi9NQR+4n//yb4if/8pt82GGLR9i2GgJyi7M+V8DwxAXm7thpr3VHOd7JPZItfmWsAZXiGjTcED6U/zxkw514ZG+rq/yseHHtjdVgs9ZuS0lQ5L4+M72LLNjRS3ZR2+eEDLk0eBG2qnbKpK7J0fg9V37XbYnnXHbFvBCDPOl5bcn+faCGADUbNBBXpOuCdltcw+MdAlXD1HUsQxzPJF93amab6mw6nN6J/Oztn5iphc+0CNuKQ0HjsHjN3BybOzw6A9MA1Od8XFR2auBwoEO2AzDDYhf4S1WBuN1f3F488/iDM7UefePN68Wrl99KH3ptublyaZOGkwaRtvZTUD4+N83qGXbgrPa6rbm4HbIsD1H1Hbc7Ng8YNLvp2pBrl23IGAQ/Z81YXHfqJzNuxsQ7kofTsz6kVtzECgWNw+L1Byd/Vfzif/82P41H4jaQu5ebK81Znytg5A6o4wbkOmXDhTq4J763t1WGY9aMSRfVlpgRdDUJqh0J2V7d6uHGjOk0cHehx0BO262wee2scWrUU5Z1iEG3Mls87Yh/JCmvkAftts3Yzaql8mZduKZVGWk11knrOpYhjmfWrzt9kBk3e2TFTZmwbTUsZDs0d7gUg3IAg9iZNZMokgYOGioA63TLhgt1cGcxEFe0uqiu26K62V1U0xqdW2KmV9vgRPzZ+WxbXq/bG4/EQF5+zHxb30Y7bqZWv7MWt++t6rR5pOq52XNCZ9cjcXxlA4JzsbZs2nxrNTMuBmDS483adsU02NquEUddDTrSsaxex1R8bOCupq47/ZAZN3tkxU2psJh95vGF4m//7ql820MIvj4135j7f8P119wB2IgeGogArIrlMh7JZ2SWs+FK77z7XnHh12sy465vdq3fWKvtaBI82BLLEizFoFgZYNgRa6XlwbSjfW5vvBjfLz3ukQ0G99YFVxLnkrEeizXByiDf/iwAU5W9FV5bNgc4Eov8h0Dc1YrMwHxLbdoQIBTyfzI2r1iKx95a1p2LGVU7B+heOm7OJHOzOz33ZN76at4wgDNJR9UdMdB8vEv920HM8nWnDzLjZkgo6p9mxYVaY7LipkvoiBsCcge/URlkfSBmyX1m1ucJABiNsM6Yb8xdqgrEhR0Zs5wNVxqnLaqpNt21d8SgwfmkdmgetDi+we6b+XHToFreECGXbv0LQbLzVU+K4yqPsyUG1v4U/6TvudTDOZSZe1di3dSL2VysCebFYE+aNX5fDEKWdVevJMHPrdPUUbPiBt7qucd5q61TbsVYdnSpfzvo+83sdac/gnGzZU1B/9A2nukUmjs8cer+ds0dXtbcAQAYtri+eDmWyVgVsuG+8/CXWt3gQ3mNWffiS6/nMzA2HfB3XX7uaNx62Uudq/CcffE13aSZP92ygA70EBjLSyN0yrLa06VA/lJ8zjoxILinh/k4UFWLLG5l7XYu1+Lrh10fr585H7p4DQ90OG5tY4qlNA7U9Z6bfN2ZEIJxMyJmxd1cnm0I0tx7562zPi1TLWQ9huYOoSZLhdDcYTEWVQYA2LBu2XAha//B+3ea4GhcM+NKsR7athiUO1NRK/RMDMJta1cMv0IZmAjP3xYzldLjXu2nBmkM9KTdTdsGBJNuqAeS+mHX4r+HYEjHbYJh+22cjwNx/OV7lnPRccwxWLmzzVweHVXd1RjkKY/bLWB6tMfn9fWaeF7bspqz5bjKDrXXurxvL2PrdSxl/dt0S3VZ//ZA9lg75fPOdNqavVnXncnxgffff9/l+muB2eeTh15Ybq7s2sQhDdV8Y66ZBuOO//1ewbgZ8vNnf9vquPrun9/LT/p6URQLy82VsVoEAsyKcGOkKIo7ktP9m1HVjqqo4fUPy80VmdIMZL4xF+oRn8yPEbLhQqa+INxaISvu//nbf0sf++Vyc0WjLdhEsYHD+WS76vEeMz7pwXxjbk3Qabm58gHzpoHDTJAVR7je/+tTNxXf/v5z7Zo7/DhsY9bcAQDoxXxjrlEUxdksmNxyy/abilM/vKdVy5a1zi+uy4obmy2qMO1i84iwpflqlwYOMtYYOcG42bCQnuW9d3561udjJt3yqZta20R+8E+/Ks7++7rM60MhmzoEbpebK5dmfa4AgPZiNtyjaWOwUmgidVC3/rbGfYsqTLnzZdOO2Fm3yoHY9AFGSs24KRe3367esQxbBhZsF5hp3/3Wl1vNHcJnIROKLS/GBTYAwBohGy5urT6ZB+JCNtwzP1sQiOvg1d+9Vfzhj++kT3hlubnSHLdxwgw7oI4bdRGMm35rasGEuh26WBGaO7zw9DdbRZUzYWF9cr4x9/SsN3eYb8wdCfUNwj/HYDjMmLo+f/ONuf3xfU4PcIzT8Rj7hzs6YJzEsieXqralhmy4kH0fsvBp7z/Xd1GVFQf12pk1kyiSBg4aKlAr21SnmKw4OglB2X899fXisX+7WPzjyf/In3lXURTN+cbc3aMqJD4BjsUhHuuhNTkMW12fv/viP/dnXcT6sT85lkUsTJl4c+5sXBusEbLhTnxvryBcj37x7G/zJwrGQY3i9lONGRgLMuOm25rthrLiqBI+F2FbSVhQZ0KW3PPzjbkfmTiYWmVNFLVRgHXCTblwc64qELfwtR3FE6e+LhDXozfevJ430XpNnV6A2SUYN6Vih6s1C6ev6qBKG2EhHRbUYWFd4dB8Y+5S/EwB0yXcHd5XFMUe1xUohWy4ULIidFzPa8OFrvyh9myoQesmb+9eXPp9/lxdVAFmmGDc9FpTK+6rX7lVe3k6CgvqsLA+deKeds0dLsV6McCUWG6uXFturpxbbq7IjANaumXDPfP4g63as/RHF1UAUmrGTaGYwfRAemY6W9GrPXdsbxVh/vb3nyv+66U1d3FDNPexuEhfWG6uvD0rkxqL6Id6WDvidr5zoY5XCGT08NodsabW7qIothZFEV5zIdbWCq3Vnwz/vtxcWVeva74xF55/JHnt1fja4xsJnsQC+6djDbJrcVzlmM71c9x4rPvi2Io4rhDUGbhm2HxjbkscWznnfR2/Yt7KOb8Q/73tnMfXny5rqFW9X/z5ffHn59ocY8PXfRD9fmbiOI91m9v5xtzu5Hy2JMetPP+K12/4mg777wHQ9u/ah+PN3EP5z8JNup/+8B5BuAFc+PWaYNz15eaKYBzADJMZN51kxTGQ8HkJzR1Cd7QKd8Usuc/M0CwfSwIIZWDgSgxktBWDeBeToFcRAxkhIHE+BmSKpAD+qnjs/LVb43+H9z7W6b3bKIv1H4nnlI4pHPdit46YIagy35g7H4N6u5MfhX8PXTWfjIGXDYnnfSWb8/T4FzvNe5zzK23m/HSnOU+kDQna/XxLu2MMct0HscHPzLFybtucy5YYfDwfx19e2/K457sNeZBrOqK/B8D6v2u7YqfUdYG43V/c3urALhC3cRVZcbaoAsw4wbgpIyuOYQqfndDcIdSHydxcFMXL8425R2d4wkNQ4ny7wFMMyKSBgjIzqtdMnieTwMe1JKurdGSg0VePKbzfsZiJ1E4ehFvK2sPfl513z2Lg5Xxy3kuxptnxZIw7YgBn3bzHQOIgcz6wIVz3QYziM3MsCxperThuW4Ne05r+HsDMirXhQqOm5+N3+6qQDRdKV4SMOLXhBmOLKgA5wbjps6am12dv/4SsOAYSmjuE+jDhzniFR+Ybc4sz0Nwh/PK/Z7m58oGiKLYlwafK7KgYVEiDBEeXmys3LjdXwjG2xWL5bYMZMRhWBsRC8GFbfO2NMZBxNW53HMRSctxtyfHysafj2p1ki5Wv3xn+FEWxM5mX/fG5/TqWBF4OxGOHrYhH4xjLVvQ78nmPc54GwY5nc76v1wDSRg163Qd876F/ZpKtqUXydyA/bjeDXNM6/h7AzOolGy6UrmBwgnEA5ATjpkis9XE4PaNDsuIYgnBHPNwZP/73e6uaO9wRt63ePcVzvW+5uRKCAUWsUZV2nqzaarg/CUCEoMPx9IfxWPs6vF8asNkRg1s74muPx4DIoLXG9qU17+LxykylTtsz09evZnstN1eWsuBMX1sw4/mVAbzjVXXE4jyW75EHDNM5D3XIjmavDbXNhlqfrcKg130Qo/jM5Nf7QnY+xzsF5IZwTev4ewAzKWa2y4arwau/e6t498/vpW/0yrjV3Q1Z3fONufdjdjfMxOcvrCnmG3N/iu891NIhFe+1O5ZyKd/vT/G/e755HUuHhLm6Eo9xJf53T+Vh4nMvxvc+32UnDDUQjJsuh9P28yErTn0PhuneO29tNXe4ZftN+VHD5+6p+cbc2RgUnioVQYhyu1yRZO6k0vpXlQXu4zErty7G46eZasdiPbfw5Xl6g1ln+XtUvXe6XbVK+b5LVa/PzqnfMabPLxdl6/4k2W9bskVEOueVAaIYkBvldtGBrvsgRvSZKV9zNf870O08s9cXG7mmdfw9gFkT6r3ON+ZCNtwj+amHdWP4jpcNN1w/f/a/8+OdHcNhHsv+CbPw+dudrHlPjyIg16H27mot4fjzrseJxziW1dA9Fo/RMbAW36Oc33NxzXpRQG5zCcZNCVlx1CVsew6L9TbNHUK9wsUZa+5QZTWY1aXbY6efHa3Yglduiz2/SYXr09pd7XQL6A3LtWwcw5jzQW32GIb9mSnPp+14h9zNNL+mxZj+PYCJFLPhXi6K4rZ0/CEb7jsPf6nVuElpk+F7cW1n+sIWVRgbeR3aUQTk8tq7VfZ3Csglgbh2DczC420bqMWA2/54M31n3FVwoFNpGuohGDc9FmTFUafQ3OGJU/dXbVu9LTZ3ODzDF2T1i73LHae2PwtZQfHLsqyrdS4vXL8JmUHl+3cKtG3NntvvsYt4rnu6/NmWbrMdxpwPwaaOYQSfmfK1bcfb5TwHvabj+vcAJkov2XAP3r/TRR2BN968Xrx6+a30wK8tN1ea03J+MMliiZW8nu/QAnLzjbn7skBcWMfcGGtQ57V3O9Vb3p8E4tI61juTsa+rvZtYLRlSPpTsFmkX4KMGHzTJU2NN4OPer3x61ueDGoSAbyjw/O3vP1dc+PW64sQnYx25u8etNkoNlpK6a/elX36l+IXbLchxLWYeHU8eT7t17k62y9bhQjyfUGNja54VlZ1Tv+NKn787FvvvJ6B3IZnzI1X14eKiqJdA2LUYcFz33Cz4lI9v4Os+iBF8Zs7Fhd3WMHdx4ZbrtGAd9JqO698DmBjxxtij6Q3bImbDhZtqgnCjpXEDjLcQkJtvzO3JOr+HgFxRVeu2T2kN5jW1hON66Hh4n2Q9sz9fz1Q0KNsTg4jp2C/Gnx2bb8ydqVhrbS3+GoBLnZMZt7kE46bAfGNuIS3A+7GPfKhV2wvqUDZ3eOzfLhY/+eff5EWKQ3OHZviMLjdXZmkBeiZ+uW2JX4xF+gUcAzJPtntx/HlYFFybb8wdzxsBbKJzycIipMOvNnGIQZN0sdDXAiYcJywgkiYIYQvigXLBUfw1AHNfbNCQz8m5pHNnuLt4tWLOu9bkSI5VBqFOl00C4oIovW55AGig6z6IEX1mziXBtrAw3ZIuTOP1aLuIG/SajvHfAxh7scv52fg9vEao+3rie3tb3dIZrYpg3DjWi1sjZgXdF290XIs3ms71GpiIN77uS+pxXY3fl8fj98GReHNm3fHiWuJIfO3W9LWDlkXIzquIx+14XvE1p+PYr5Vrg/jv53odV1w/lO9fZmibyo8AABdMSURBVCJ1ff8+zm1Dcx63RpY3D7cmNc3KbuVVgZ1+3r9cN+5vd817PL+Rzl9FUKsYUkAuzXRrd5wz2c3FXBrQO5OuoZKxn0nWa/urbgYznj7w/vvvuzR/be/+fPLQC8vNlV2bOKSezTfmmmkwLnS8FIxjM4SOYSFLLtuSUfrxcnNlYrauxsLyLTEVPP/5+fJLs83Pj2TBqXJBu7UqMyo9Rh+v3dOhsH7VOXUbc8efx+c8mS0Myvdfs+DYSJfLuNi6km2DvZqk0ZePt2peVLx+fxZw63nOs+NsjQuytGZar2PY8HXPjtPx8zfA+675zPTwmTidZb9VzUXpwnJzZU/2+g1f01H9PRg38425xSxg8jfLzZXFUQwz1gxLtyr+w3Jz5dGJmjC6apcNF4R6rwfVFK7FO+++V9y++8fpW11fbq6MZZOr9Dung6X4/9vK4Ez8//3pDh3ZU1XfFzuy7KTc8bxTeo/nVt5Ia7cF8Fy7zO30O7KNazHjqVNAr9t5LcX3X2rz827nNsicd7vuV2M39cqxDfr+VePI1yKjnL+KceTryGLAIOKfynF3Wst1Of903b2vapdCDIaWN3tDgHJf9vPyvNa8PnRjjbsPRp4inX/WelnbzgI14yacrDjGSbjLHmrPLHytsvzAoVCzZlaaO8QsnvTO1JbkTu8wXnt0kwIQByq2H6YL1XPtupl2ExfCe7KGAVuzblfXqragFn95/ZnsZz3PeXacq/Ec0ppp6RjCgm9fm9du+LoPYlSfmRhUTReh+Vx0e/2Gr+mY/z2AsROy4WJw92QeiAvZcM/8bEEgrkZTuEV1R5fs7jwoc7WiQH4nT2bfC/lrN7qd7nS2TlmKf0r39dHFsxxX2qzqWLv6qRWBpKW4vjieHGNHmX2+wXMbZM5z+eu3dtlVMOz3X6OG+VujYh1ZDFhDLr35WXmMHo6dfrbarXfSx6s+i+XPV/8OJaVbBg5isnGCcZNvzR3tgw99YdbngzHw3W99uTh14p52zR0WJ6S5w9Hsn7nyzlLbu2XxDu6e+Jzyy+5aUsx+X/zvdenk8bXb4s/WvXaDW/bKMQ9yTtfinc08KHch3j3c129dsOz4S7Eg7dHs+OUCbFunu59xIdV23nqtLRaPszPORXk+5Rj2dNqWMsh1T3T7/LV7334/M71c8wMV57MU/3tbErisPMYg13REfw9g6sQarZeqtqWGbLhwo8y21HpNcDDuWvw+/0DMXjmQfA/urioyHx+7L3l9+P9z+H97+GdeqH6dGMxKa87mr73ab/mLinEtxePujJlAO5PvlU7F84vs9a1zS8bTqSPlsSSQdCC+dyvDLx6jnJdOxfd7Obe+57zCmfL18Xu3nJsdVQGjEbx/lZHNXzsdAnIbCfala55jMQC2Kv53GgiuWluuZji0W19nj6/LiIhr1jPxWl6Mux5O97AWZcRsU40mcZtqPuYQ+AjF9EMNLxgHYYvGN7/9i+K/1rf1D34ZugDPYHMHNlEvW3GhTrapMoj5xtyHYx2yu/LDhN0SP/3hVwXhNsn/9eUf53V0t4zrmifbQlZVWyzdvrduu2i2la6ydEBWemDNlsUY6PhT/M8yQHBh0K2H2bi2tWk8dT7+Z9X2vnSbatXrr5Q15GIAKv3ZjqQGWdsttsm8rDtGH+fW95wXa6/71RjcSn+2NZaZKNrMTVrGot32yY7vXzGO1bXZqOevk6qyJxs9dsVW57JUR1X5ko5biTe61TV5Tlmnd2uyvXegWoy9sk21msy4ybZmAR06YgnEMU7C5/FfT329+M7DX6oaVfjF4VIMKgMAfYjZcM2qQFwoF/HM4w8KxG2SkBWXBeJ+OSk3H6vqY2WPVdUiKYMNVzuUDqjqyF0e/1qWaRaCKyGD508h6NND1lo75euWqoIOcazl4x3fo03QIt2umkuPdyQEI6r+JMGqLe22u3Y5tw3NeZvzWJWdb9X5lYHAq226rffz/lVGPX+V2tQfrgwi9mhfNg9bO5QvqbqOadOryuy87PFOu0eOx+zCG2MGYy2BONoTjJtQMYCxeic9ZMUtaE/PmAqB4lCrJtylz4R6h8/HbA0AoIuQDTffmAtbHp/Ka8OF79knTt3fKhfhBu3meXHp9fy9p72jfNrwqFIPv/gfrdiKWnbRDN24e63rVjWuTuUzOgXU6nStz1prw5jzQWz2++f6nb912jRwaNvAohexvMu+GNA7l4zxWkWwsioYl85hu4BxnnnHhPigCzWxZMUxUf7S3OHB4gcnf1X84n//Nh/6I/EO/93LzZWmKwsA68WbsU9XdUoN2XChdrD14OarqBc3kq3nY+RaDM60zUzqlrUUs+MOzDfmjsesqx1Zs5+QHXWhz6Y95bg6Bdq2Js8dpvR453qoebfUZ83dged8QKN+/1HP3xodOqkOpUlUPM6aYyXbRos4/qqg34XkObvbZBvmDUqYEIJxEyh2o5QVx8QJvyCc+N7eYs8d24tvf/+5fAvHbXHb6uHl5spZV5cRORMXLQrWAhMj1oYLN2IP5WMO68Cf/vCe4nO3f9IFHQOv/u6t4g9/fCcdyCszcKOxDBhsDVtK2wQw7qt4bFUM3FyL2VTHk8fTumO7e23ElI0rFK7f2qZmXNo4YpjyzvMHBgkWdTi3Dc/5mL//qOdvVYdAXN9NQ/p8zzTbs1NztXJsodHImTRoF2vrpc0rRjZmhs821cm0phNlCGy4C8okCZ/Z0Nnts7d/Ih91uNP/2Hxj7mz8xQOGKtQ1iR3ihtHlC2DkYjbcpapA3O4vbm817xKIGx8T3EV1EGkA4Mm8xlsWUFsnPj80C7gSnzss57JxbU3GtDUb01CDGEkHyyJmkJ2PgZM18xK7W27knAea8yEY6fvXMH/lMWoLxIU5imM+n73nmXYZeDEAma5Zz5dznTUgCY6OKmDJaMiMmzDzjblGURQPpKM++NDnZ31amEAf/+gNreYOP/nn3xQ/+Zff5CcQPuO7wtbV5ebKJdcXgFnTLRuuzDRnvMxiMC4EEsIW0mRbaQgYlF0jd/RQj60MsrSaN8TgylJFx8m+stfCDbj5xty5ZNvrlTjOItva1zYYMqCj8b23xPe/2GFe+srYH8KcDyS+/7nk/Ebx/iObv+Kvway6AnF5V9VS+Owd6PLyM8lnuJzr/DlLsuImj8y4ybOmVtxXv3JrK6gBkyoEk0Ox6TbNHV7W3AGAWRNLknTMhhOIGz9vvHm9ePXyW+m4Xpuhm4r7smDZ1qzmW1uhy2MWTNlS0XHy6AYDZgcqtjymQZFzHbYIDiRmKe3Jiurn83ItjnEjNjznQ3IgCwAN9f1rmL+8M/Aot6bm9fOuxc9017En89CuHlx4fI+suMkjGDdBZMUxrcL2mtDcIfyCUSE0d1i0bRWAWRBvQr0cb0qtCtlwp07c06oPpzzJeHpx6ff5uCYlK+5o9s8qZZCiqoB82TVyTwyMnEsCKOV2w23xfaq6SBaxfMS2GJQrgw7lc/fEgF3fsnGlgasLMfiyr0MQoxxnp3peRaeMpFjfa2c8Rvr+S/GxbRvt1jnonMfnXOsw/l6u+YEYFEw7hZbvn85bpy6fbT9/o5y/OMalMqA3yhpxcY6Oxj/hM3djP5/pJCB3NLvORwXiJtcH3n///Vmfg5ZYj+P55KEXlpsruzZxSOuEOlppMC5kxYUtCjBNfv7sb1sdV7PmDsH10CxuubkyC7VXgBkRbjakTZmKovib5ebKSDovxiDPI8lD/7DcXJF9PCZiNtzZ2NBojVBjNaz57IYYb9/8u6eKC79es031HusWZlW2NXPUwS7G2Hxjbk3QKdRvdr3UjJsYMSvo7nS8995566xPC1MofK7/16duanVbzbZ6hN9AnppvzP04bNdebq687foDMA0qAqUtIRsu7IJ4UNf8sffOu+/lgbjrAnHMgtgEIWwbDU2yrsZGC8eSQNxVgThYzzbVyXE4BiNawh1SnbOYVrd86qZWt9WFr+WlHFpC/ZzFmEEAABMrfJfNN+YuVQXiwlovfBcKxE2GF196PR+nQBxTLwbeTsfg25WYAXUxq8u30ZpuMNUE4yZAzIo7nI70kFpxzIDvfuvLreYOITMgc1ts7nDY5wCASRS/wxbzbanhO+87D3+p1XHcttTJUdFFdSTbzWHMXEtqxeWuxnpmo+hUCxNPMG4yyIpjZoXPeuga16a5w8n5xtzTmjsAMClCQ65YK/Bkur4Lbtl+UysIJxtu8lQE42TGMfXCttSkwcK52GThTMyG2ykQB+2pGTcZZMUx00LXuNA97rF/u1j848n/yKfirqIomvONubtHVfQcAIYhZsM9mgfhgoPf+Lwu+RMqbFHNGk+9oLYtsyIG5DbU7RZmmcy4MTffmFtIF2wf+8iHZMUxs0KmwDM/W2hlDmTC35Hn5xtzP/LpAGDcdMuGC99tAnGT6/yirDgA+iMYN/4eTUd48KEvzPp8MONCc4cnTn29bXOHUAhbcwcAxkXI3C6KIjRpuCMfUsiGC00awncbk8sWVQD6JRg3xmJW3M3lCENW3L133jrr0wKtbauhucOpE/e0a+6wGP/+AMCmCPVMQ13ToiieyrPhwppONtx0eOPN68Uf/vhOei6vLDdXmrM+LwB0Jhg33mTFQQd77tjeau4Qmppkwi89j2nuAMBmiNlwzVjXdI2Q2f3M4w/KhpsSuqgCsBGCcWNKVhz0JmTJhc5zYatPhfBLUNi2ust0AjBq3bLhnjh1fyuzO3x3MR1+8exv8/M469IC0I1g3Phas8Xu3js/PevzAR2FrT5hy0/4ZSdzc2zu8KgZBGBU4o2fjtlwmnBNl3fefa949fJb6TldX26uXJr1eQGgO8G4MRQXc6tFfkNNrIX7d876tEBXYctP+GXnq1+pzCJ9JHSyCx3tzCQAwxKz4UI37+fzbLiwhgv1TWXDTSeNGwDYKMG48bQmg+fB+3dawEGPwt+VE9/bWxz/+71VzR3uiNtW7zafAAwq3kANmVCH8kPt/uJf6pqG+qZMJ8E4ADZKMG7MyIqD4Qg1Fp95fKG4Zfu6Atkha+Gp+cbcWc0dANiILBvu5vQQZTbcT394j5upU+7Fl15fc4LLzRXBOAB6Ihg3fg6nI5IVBxv38Y/e0ArItWnu8EDMkvuMKQagV/F7QzbcjAtZce/++b10En4563MCQO8E48ZIrGW1pujvV3VQhYGF5g6hg12b5g4vzzfmDptlALqJzYBersqGC+URZMPNDltUARiEYNx4WVMrLhShD5k9wOBCB7vQ3CFkLVQ4GZs72LYKwDohG26+MRey4R7Jf/bZ2z/RysK+1w3UmfLi0uv56QrGAdAzwbgxEbPiHkhHE7J5gOEJ2Qoha+E7D3+pXXOHpuYOAKSSbLjb0sfD90j4PvnXU19383TGvPq7t4o//PGd9KRfWW6uvD3r8wJA7wTjxoesOKhJqMUYfnnq0NzhR64FwGwLN0q7ZcM9qMnWTPr5s/+dn/bZWZ8TAPojGDcGZMVB/W751E2tX6QWvraj6r0PhV/ANHcAmE2xluilPBsukA3Hiy/9Pp+DxZmfFAD6Ihg3HhbSUYS7rRZ4UI/vfuvLxakT91RtWw2/gC1q7gAwO2I2XAisnIzZ0qtCNvUzP5MNN+veePN68erlt9JZeG25uXJp1ucFgP4Ixm2yWDB+zS/7h2TFQa323LG9eOHpb7YC4ZkbYnOHpzV3AJhuSTbcHfmJHvzG51vZ1CGrmtmmiyoAwyAYt/kOp3deQzAgdH0E6hWaO4RtR2H7UYW7YnOHXS4LwHQJN1u6ZcMpH0LpxaV1W1QF4wDom2DcJpIVB+MnbD8Kv3i1ae7wfOyqB8AUiB20m7Lh6MU7775XXPj1msy468vNFfXiAOibYNzmWpAVB+Mn/OL1xKmvt7oaV3gkNndouHQAkylmw4WMpqfybLiPfeRDxROn7pcNxzq2qAIwLIJxm2tNVty9X/n0DE4BjKewbfXE9/Z2au4QAnILLh/AZEmy4e7KBx46bD/z+INujlLpxZdezx+WFQfAhgjGbZL4S/zN5buHu7D33lmZhQNsotDcIWxTatPc4THNHQAmQy/ZcKHDdrgZA1VkxgEwLIJxm2dN3amDD31hxk4fJsfHP3pDq7lDqB9U4a6YJfcZlxRgPMUGPJdkw7FRISvu3T+/l776l8vNlbdNKAAbIRi3CWTFwWQK9YNCc4fwdzYT/j6/rLkDwHiJ2XA/Cg140rVXEEoQhFIEsuHoxfnFdVlxtqgCsGEfNHWbYs0v7H/44zvF/OdOzM7Zw/R6JGZfLCw3V5quM8Dmif8/PpsH4YLdX9zeqgsqCEevbFEFYJgE42oWF4brFoXA1LijbO6w3FyxUAeoWazjGW58HsrfOWTDhSBcqAcKvXr1d2+1bp4nXnHTDYBB2KZaP9vYYPqFwuBPha1RmjsA1CfW71ysCsSFbLgXnv6mQBx9+8/1XVTdbANgIDLjajTfmGvEd3thJk4Y+EwMwB+e+ZkAGLFYt/OR/F1CNtx3H/6y+rxs2C+e/W3+UsE4AAYiGFejmM6+a2ZOGABgxGI2XKgNd1v+Tp+9/ROtbamhKzZsxBtvXi9evfxW+srXlpsrl0wmAIMQjAMAYCJ1yoYLHbAfvH+nC8tAXlz6ff5yXVQBGJhgHAAAEyWW/nhaNhyjposqAKMgGAcAwMSYb8wdjvU410XbvvPwl2TDMVQXfr0mGHddp3QAhkEwDgCAsRez4UJtuDvysd6y/aZWNtwtn7rJhWRoKrLibFEFYCgE4wAAGGudsuEOfuPzrfpwMGy2qAIwKoJxAACMpfnG3IdjAEQ2HLUTjANgVATjAAAYO/ONubvjtlTZcNTu1d+9Vbz75/fSt31lubnytisBwDAIxgEAMDZiNlwIwt3Vbkw/+ZfftP5Ajc6abACG5f8wkwAAjIOYDdfsFIiDTWKLKgBDIzMOAIBN1Us2HGyi15abK00XAIBhEYwDAGDTxEDcj4qiCP98wZVgDMmKA2CoBOMAANg0sSj+gisAAMwKNeMAAAAAoCaCcQAAAABQE8E4AAAAAKiJYBwAAAAA1EQwDgAAAABqIhgHAAAAADURjAMAAACAmgjGAQAAAEBNBOMAAAAAoCaCcQAAAABQE8E4AAAAAKiJYBwAAAAA1EQwDgAAAABqIhgHAAAAADURjAMAAACAmgjGAQAAAEBNBOMAAAAAoCaCcQAAAABQE8E4AAAAAKiJYBwAAAAA1EQwDgAAAABqIhgHAAAAADURjAMAAACAmgjGAQAAAEBNBOMAAAAAoCaCcQAAAABQE8E4AAAAAKiJYBwAAAAA1EQwDgAAAABqIhgHAAAAADURjAMAAACAmnzQRLf14fnG3K4xHRsAMB0+vIln0bDWAQCon2Bce7cVRfH8uA4OAGBAD8Q/AADUyDZVAAAAAKiJYBwAAAAA1MQ21b96uyiKF8ZlMADATHp7hCfdtNYBANh8H3j//fddBgAAAACogW2qAAAAAFATwTgAAAAAqIlgHAAAAADURDAOAAAAAGoiGAcAAAAANRGMAwAAAICaCMYBAAAAQE0E4wAAAACgJoJxAAAAAFATwTgAAAAAqIlgHAAAAADURDAOAAAAAGoiGAcAAAAANRGMAwAAAICaCMYBAAAAQE0E4wAAAACgJoJxAAAAAFATwTgAAAAAqIlgHAAAAADURDAOAAAAAGoiGAcAAAAANRGMAwAAAICaCMYBAAAAQE0E4wAAAACgJoJxAAAAAFATwTgAAAAAqIlgHAAAAADURDAOAAAAAGoiGAcAAAAANRGMAwAAAICaCMYBAAAAQE0E4wAAAACgJoJxAAAAAFATwTgAAAAAqIlgHAAAAADURDAOAAAAAGoiGAcAAAAANRGMAwAAAICaCMYBAAAAQE0E4wAAAACgJoJxAAAAAFATwTgAAAAAqIlgHAAAAADURDAOAAAAAGoiGAcAAAAAdSiK4v8HbH1IaHQcjMAAAAAASUVORK5CYII=;clipPath=inset(14.94% 51% 4.98% 4.67%);" vertex="1" parent="7">
                    <mxGeometry x="590" y="80" width="117.9027027027027" height="164" as="geometry"/>
                </mxCell>
                <mxCell id="9" value="what&amp;nbsp; is your triangle" style="whiteSpace=wrap;html=1;" vertex="1" parent="7">
                    <mxGeometry y="20" width="760" height="40" as="geometry"/>
                </mxCell>
                <mxCell id="10" value="Enter the side to know what kind your triangle do you have:" style="text;html=1;align=center;verticalAlign=middle;resizable=0;points=[];autosize=1;strokeColor=none;fillColor=none;" vertex="1" parent="7">
                    <mxGeometry x="10" y="80" width="340" height="30" as="geometry"/>
                </mxCell>
                <mxCell id="12" value="Side B :" style="text;html=1;align=center;verticalAlign=middle;resizable=0;points=[];autosize=1;strokeColor=none;fillColor=none;" vertex="1" parent="7">
                    <mxGeometry x="10" y="180" width="70" height="30" as="geometry"/>
                </mxCell>
                <mxCell id="13" value="Side C :" style="text;html=1;align=center;verticalAlign=middle;resizable=0;points=[];autosize=1;strokeColor=none;fillColor=none;" vertex="1" parent="7">
                    <mxGeometry x="10" y="235" width="70" height="30" as="geometry"/>
                </mxCell>
                <mxCell id="14" value="" style="rounded=1;whiteSpace=wrap;html=1;" vertex="1" parent="7">
                    <mxGeometry x="20" y="152" width="90" height="20" as="geometry"/>
                </mxCell>
                <mxCell id="15" value="" style="rounded=1;whiteSpace=wrap;html=1;" vertex="1" parent="7">
                    <mxGeometry x="20" y="210" width="90" height="20" as="geometry"/>
                </mxCell>
                <mxCell id="16" value="" style="rounded=1;whiteSpace=wrap;html=1;" vertex="1" parent="7">
                    <mxGeometry x="20" y="260" width="90" height="20" as="geometry"/>
                </mxCell>
                <mxCell id="11" value="Side A :" style="text;html=1;align=center;verticalAlign=middle;resizable=0;points=[];autosize=1;strokeColor=none;fillColor=none;" vertex="1" parent="1">
                    <mxGeometry x="40" y="145" width="60" height="30" as="geometry"/>
                </mxCell>
                <mxCell id="17" value="Classify" style="whiteSpace=wrap;html=1;" vertex="1" parent="1">
                    <mxGeometry x="50" y="330" width="110" height="40" as="geometry"/>
                </mxCell>
            </root>
        </mxGraphModel>
    </diagram>
</mxfile>